<svg xmlns="http://www.w3.org/2000/svg" viewBox="0 0 596 596"><defs><style>.cls-1{fill:#00c7ce;}.cls-2{fill:#fff;}</style></defs><title>icon</title><g id="Layer_2" data-name="Layer 2"><g id="Layer_1-2" data-name="Layer 1"><rect class="cls-1" width="596" height="596" rx="70.82"/><path class="cls-2" d="M455.88,201.89a91,91,0,0,0-137.29-59,118.22,118.22,0,0,0-205.43,79.83c0,2.46.09,4.89.23,7.31a91,91,0,1,0,66.2,169,118.24,118.24,0,0,0,194,22.74,118.25,118.25,0,1,0,82.29-219.83Zm-269.34-2.47a13.85,13.85,0,0,1,13.84-13.85H305.53a13.85,13.85,0,0,1,13.84,13.85v22.64a13.84,13.84,0,0,1-13.84,13.84H200.38a13.84,13.84,0,0,1-13.84-13.84ZM364.75,351.5a16,16,0,0,1-16,16H202.57a16,16,0,0,1-16-16V333.24a16,16,0,0,1,16-16H348.71a16,16,0,0,1,16,16Zm44.71-67.72a17.94,17.94,0,0,1-17.93,17.94H204.47a17.94,17.94,0,0,1-17.93-17.94V269.33a17.94,17.94,0,0,1,17.93-17.94H391.53a17.94,17.94,0,0,1,17.93,17.94Z"/><circle class="cls-2" cx="152.75" cy="457.73" r="33.79"/></g></g></svg>