<svg xmlns="http://www.w3.org/2000/svg" viewBox="0 0 650.45 587.67"><defs><style>.cls-1{font-size:182.47px;font-family:HelveticaNeue-Bold, Helvetica Neue;font-weight:700;}.cls-1,.cls-2{fill:#00bbc2;}</style></defs><title>logo_complete2</title><g id="Layer_2" data-name="Layer 2"><g id="Layer_1-2" data-name="Layer 1"><text class="cls-1" transform="translate(155.45 548.08)">Pollee</text><path class="cls-2" d="M438.19,105a98.1,98.1,0,0,0-148-63.63A127.48,127.48,0,0,0,68.65,127.49c0,2.64.09,5.26.25,7.87a98.08,98.08,0,1,0,71.37,182.19,127.51,127.51,0,0,0,209.19,24.52,127.5,127.5,0,1,0,88.73-237Zm-290.43-2.66a14.93,14.93,0,0,1,14.93-14.93H276.07A14.93,14.93,0,0,1,291,102.37v24.41a14.94,14.94,0,0,1-14.93,14.93H162.69a14.94,14.94,0,0,1-14.93-14.93Zm192.16,164a17.29,17.29,0,0,1-17.29,17.29H165.06a17.3,17.3,0,0,1-17.3-17.29V246.67a17.31,17.31,0,0,1,17.3-17.3H322.63a17.3,17.3,0,0,1,17.29,17.3Zm48.22-73a19.34,19.34,0,0,1-19.34,19.34H167.1a19.34,19.34,0,0,1-19.34-19.34V177.75a19.34,19.34,0,0,1,19.34-19.34H368.8a19.34,19.34,0,0,1,19.34,19.34Z"/><circle class="cls-2" cx="111.33" cy="380.9" r="36.43"/></g></g></svg>