<svg xmlns="http://www.w3.org/2000/svg" viewBox="0 0 816 816"><defs><style>.cls-1{fill:#e6e6e6;}.cls-2{fill:#fff;}</style></defs><title>placeholder</title><g id="Layer_2" data-name="Layer 2"><g id="Layer_1-2" data-name="Layer 1"><rect class="cls-1" width="816" height="816"/><path class="cls-2" d="M550,321.56a81.82,81.82,0,0,0-123.48-53.08,106.33,106.33,0,0,0-184.76,71.81q0,3.3.21,6.56a81.81,81.81,0,1,0,59.53,152A106.35,106.35,0,0,0,476,519.27a106.35,106.35,0,1,0,74-197.71Zm-242.25-2.22a12.46,12.46,0,0,1,12.45-12.46h94.57a12.45,12.45,0,0,1,12.45,12.46V339.7a12.44,12.44,0,0,1-12.45,12.45H320.2a12.45,12.45,0,0,1-12.45-12.45ZM468,456.12a14.43,14.43,0,0,1-14.42,14.42H322.17a14.43,14.43,0,0,1-14.42-14.42V439.7a14.43,14.43,0,0,1,14.42-14.43H453.61A14.43,14.43,0,0,1,468,439.7Zm40.22-60.91a16.14,16.14,0,0,1-16.13,16.14H323.88a16.14,16.14,0,0,1-16.13-16.14v-13a16.13,16.13,0,0,1,16.13-16.13H492.12a16.13,16.13,0,0,1,16.13,16.13Z"/><circle class="cls-2" cx="277.36" cy="551.66" r="30.39"/></g></g></svg>