<svg xmlns="http://www.w3.org/2000/svg" xmlns:xlink="http://www.w3.org/1999/xlink" viewBox="0 0 2695.77 2690.73"><defs><style>.cls-1{isolation:isolate;}.cls-2{fill:#f4f7fa;}.cls-3{fill:url(#linear-gradient);}.cls-34,.cls-35,.cls-4,.cls-47,.cls-5,.cls-59,.cls-67,.cls-89{opacity:0.3;}.cls-34,.cls-39,.cls-4,.cls-43,.cls-47,.cls-5,.cls-55,.cls-59,.cls-67,.cls-71,.cls-84,.cls-89{mix-blend-mode:multiply;}.cls-4{fill:url(#linear-gradient-2);}.cls-5{fill:url(#linear-gradient-3);}.cls-6{fill:url(#linear-gradient-4);}.cls-7{fill:url(#linear-gradient-5);}.cls-8{fill:url(#linear-gradient-6);}.cls-9{fill:url(#linear-gradient-7);}.cls-10{fill:url(#linear-gradient-8);}.cls-11{fill:url(#linear-gradient-9);}.cls-12{fill:url(#linear-gradient-10);}.cls-13{fill:url(#linear-gradient-11);}.cls-14{fill:url(#linear-gradient-12);}.cls-15{fill:url(#linear-gradient-13);}.cls-16{fill:url(#linear-gradient-14);}.cls-17{fill:url(#linear-gradient-15);}.cls-18{fill:url(#linear-gradient-16);}.cls-19{fill:url(#linear-gradient-17);}.cls-20{fill:url(#linear-gradient-18);}.cls-21{fill:url(#linear-gradient-19);}.cls-22{fill:url(#linear-gradient-20);}.cls-23{fill:url(#linear-gradient-21);}.cls-24{fill:url(#linear-gradient-22);}.cls-25{fill:url(#linear-gradient-23);}.cls-26{fill:url(#linear-gradient-24);}.cls-27{fill:url(#linear-gradient-25);}.cls-28{fill:url(#linear-gradient-26);}.cls-29{fill:url(#linear-gradient-27);}.cls-30{fill:url(#linear-gradient-28);}.cls-31{fill:url(#linear-gradient-29);}.cls-32{fill:url(#linear-gradient-30);}.cls-33{fill:url(#linear-gradient-31);}.cls-34{fill:url(#linear-gradient-32);}.cls-104,.cls-35{mix-blend-mode:soft-light;}.cls-35{fill:url(#linear-gradient-33);}.cls-36{fill:#8db2e2;}.cls-37{fill:url(#linear-gradient-34);}.cls-38{fill:url(#linear-gradient-35);}.cls-39{opacity:0.4;}.cls-40{fill:url(#linear-gradient-36);}.cls-41{fill:url(#linear-gradient-37);}.cls-42{fill:url(#linear-gradient-38);}.cls-43{fill:url(#linear-gradient-39);}.cls-44{fill:url(#linear-gradient-40);}.cls-45{fill:url(#linear-gradient-41);}.cls-46{fill:url(#linear-gradient-42);}.cls-47{fill:url(#linear-gradient-43);}.cls-48{fill:url(#linear-gradient-44);}.cls-49{fill:url(#linear-gradient-45);}.cls-50{fill:url(#linear-gradient-46);}.cls-51{fill:url(#linear-gradient-47);}.cls-52{fill:url(#linear-gradient-48);}.cls-53{fill:url(#linear-gradient-49);}.cls-104,.cls-54{fill:#fff;}.cls-55{opacity:0.2;}.cls-56{fill:url(#linear-gradient-50);}.cls-57{fill:url(#linear-gradient-51);}.cls-58{fill:url(#linear-gradient-52);}.cls-60{fill:url(#linear-gradient-54);}.cls-61{fill:url(#linear-gradient-55);}.cls-62{fill:url(#linear-gradient-56);}.cls-63{fill:url(#linear-gradient-57);}.cls-64{fill:url(#linear-gradient-58);}.cls-65{fill:url(#linear-gradient-59);}.cls-66{fill:url(#linear-gradient-60);}.cls-67{fill:url(#linear-gradient-61);}.cls-68{fill:url(#linear-gradient-62);}.cls-69{fill:url(#linear-gradient-63);}.cls-70{fill:url(#linear-gradient-64);}.cls-71{opacity:0.24;}.cls-72{fill:#552d63;}.cls-73{fill:url(#linear-gradient-65);}.cls-74{fill:url(#linear-gradient-66);}.cls-75{fill:url(#linear-gradient-67);}.cls-76{fill:url(#linear-gradient-68);}.cls-77{fill:url(#linear-gradient-69);}.cls-78{fill:url(#linear-gradient-70);}.cls-79{fill:url(#linear-gradient-71);}.cls-80{fill:url(#linear-gradient-72);}.cls-81{fill:url(#linear-gradient-73);}.cls-82{fill:url(#linear-gradient-74);}.cls-83{fill:url(#linear-gradient-75);}.cls-84{opacity:0.6;fill:url(#linear-gradient-76);}.cls-85{fill:url(#linear-gradient-77);}.cls-86{fill:url(#linear-gradient-78);}.cls-87{fill:url(#linear-gradient-79);}.cls-88{fill:url(#linear-gradient-80);}.cls-89{fill:url(#linear-gradient-81);}.cls-90{fill:url(#linear-gradient-82);}.cls-91{fill:url(#linear-gradient-83);}.cls-92{fill:url(#linear-gradient-84);}.cls-93{fill:url(#linear-gradient-85);}.cls-94{fill:#26264f;}.cls-95{fill:#444b8c;}.cls-96{fill:url(#linear-gradient-86);}.cls-97{fill:#1f1f44;}.cls-98{fill:url(#linear-gradient-87);}.cls-99{fill:url(#linear-gradient-88);}.cls-100{fill:url(#linear-gradient-89);}.cls-101{fill:url(#linear-gradient-90);}.cls-102{fill:url(#linear-gradient-91);}.cls-103{fill:url(#linear-gradient-92);}.cls-105{fill:url(#linear-gradient-93);}.cls-106{fill:url(#linear-gradient-94);}.cls-107{fill:url(#linear-gradient-95);}.cls-108{fill:url(#linear-gradient-96);}.cls-109{fill:url(#linear-gradient-97);}.cls-110{fill:url(#linear-gradient-98);}.cls-111{fill:url(#linear-gradient-99);}.cls-112{fill:url(#linear-gradient-100);}.cls-113{fill:url(#linear-gradient-101);}.cls-114{fill:url(#linear-gradient-102);}.cls-115{fill:url(#linear-gradient-103);}.cls-116{fill:url(#linear-gradient-104);}</style><linearGradient id="linear-gradient" x1="791.68" y1="527.1" x2="1823.69" y2="2443.68" gradientUnits="userSpaceOnUse"><stop offset="0" stop-color="#4179e8"/><stop offset="1" stop-color="#294391"/></linearGradient><linearGradient id="linear-gradient-2" x1="1105.91" y1="843.4" x2="1848.75" y2="843.4" gradientUnits="userSpaceOnUse"><stop offset="0" stop-color="#3f4ea6"/><stop offset="1" stop-color="#5544ab"/></linearGradient><linearGradient id="linear-gradient-3" x1="1954.74" y1="1500.49" x2="2463.54" y2="977.23" xlink:href="#linear-gradient"/><linearGradient id="linear-gradient-4" x1="870.01" y1="1267.93" x2="446.01" y2="577.97" xlink:href="#linear-gradient"/><linearGradient id="linear-gradient-5" x1="861.96" y1="1381.96" x2="1349.85" y2="1381.96" xlink:href="#linear-gradient"/><linearGradient id="linear-gradient-6" x1="1062.95" y1="974.33" x2="1089.93" y2="1224.88" xlink:href="#linear-gradient"/><linearGradient id="linear-gradient-7" x1="1138.99" y1="1276.97" x2="1093.22" y2="1699.31" xlink:href="#linear-gradient"/><linearGradient id="linear-gradient-8" x1="1129.95" y1="1225.86" x2="1125.79" y2="1587.87" xlink:href="#linear-gradient"/><linearGradient id="linear-gradient-9" x1="1615.78" y1="1351.49" x2="2068.39" y2="1351.49" xlink:href="#linear-gradient"/><linearGradient id="linear-gradient-10" x1="1793.84" y1="895.62" x2="1820.82" y2="1146.17" xlink:href="#linear-gradient"/><linearGradient id="linear-gradient-11" x1="1883.82" y1="1246.57" x2="1838.04" y2="1668.91" xlink:href="#linear-gradient"/><linearGradient id="linear-gradient-12" x1="1874.77" y1="1195.46" x2="1870.61" y2="1557.47" xlink:href="#linear-gradient"/><linearGradient id="linear-gradient-13" x1="952.82" y1="577.25" x2="1045.33" y2="846.1" gradientUnits="userSpaceOnUse"><stop offset="0" stop-color="#8caeff"/><stop offset="1" stop-color="#7196e9"/></linearGradient><linearGradient id="linear-gradient-14" x1="1772.02" y1="295.37" x2="1864.53" y2="564.23" xlink:href="#linear-gradient-13"/><linearGradient id="linear-gradient-15" x1="1010.38" y1="1142.07" x2="936.18" y2="1070.76" xlink:href="#linear-gradient-13"/><linearGradient id="linear-gradient-16" x1="869.15" y1="1289.03" x2="794.95" y2="1217.72" xlink:href="#linear-gradient-13"/><linearGradient id="linear-gradient-17" x1="868.84" y1="1289.34" x2="794.64" y2="1218.03" xlink:href="#linear-gradient-13"/><linearGradient id="linear-gradient-18" x1="1009.74" y1="1142.73" x2="935.54" y2="1071.42" xlink:href="#linear-gradient-13"/><linearGradient id="linear-gradient-19" x1="749.62" y1="913.47" x2="905.73" y2="1244.96" xlink:href="#linear-gradient-13"/><linearGradient id="linear-gradient-20" x1="635.02" y1="967.44" x2="791.13" y2="1298.93" xlink:href="#linear-gradient-13"/><linearGradient id="linear-gradient-21" x1="579.27" y1="993.69" x2="735.38" y2="1325.19" xlink:href="#linear-gradient-13"/><linearGradient id="linear-gradient-22" x1="803.8" y1="887.96" x2="959.91" y2="1219.45" xlink:href="#linear-gradient-13"/><linearGradient id="linear-gradient-23" x1="2374.89" y1="1220.37" x2="1923.9" y2="484.15" xlink:href="#linear-gradient"/><linearGradient id="linear-gradient-24" x1="2581.96" y1="1144.56" x2="2480.78" y2="1043.38" xlink:href="#linear-gradient-13"/><linearGradient id="linear-gradient-25" x1="2405.13" y1="1321.4" x2="2303.95" y2="1220.21" xlink:href="#linear-gradient-13"/><linearGradient id="linear-gradient-26" x1="2407.72" y1="1318.8" x2="2306.54" y2="1217.62" xlink:href="#linear-gradient-13"/><linearGradient id="linear-gradient-27" x1="2578.01" y1="1148.51" x2="2476.83" y2="1047.33" xlink:href="#linear-gradient-13"/><linearGradient id="linear-gradient-28" x1="2256.2" y1="870.85" x2="2438.33" y2="1495.29" xlink:href="#linear-gradient-13"/><linearGradient id="linear-gradient-29" x1="2161.13" y1="898.58" x2="2343.26" y2="1523.02" xlink:href="#linear-gradient-13"/><linearGradient id="linear-gradient-30" x1="2052.57" y1="930.24" x2="2234.7" y2="1554.68" xlink:href="#linear-gradient-13"/><linearGradient id="linear-gradient-31" x1="2362.29" y1="839.91" x2="2544.42" y2="1464.35" xlink:href="#linear-gradient-13"/><linearGradient id="linear-gradient-32" x1="109.9" y1="894.21" x2="1141.91" y2="2810.8" xlink:href="#linear-gradient"/><linearGradient id="linear-gradient-33" x1="1105.91" y1="870.46" x2="1848.75" y2="870.46" xlink:href="#linear-gradient-13"/><linearGradient id="linear-gradient-34" x1="-764.1" y1="2155.22" x2="-718.32" y2="2425.74" gradientTransform="matrix(-1, 0, 0, 1, 1282, 0)" gradientUnits="userSpaceOnUse"><stop offset="0" stop-color="#444b8c"/><stop offset="1" stop-color="#26264f"/></linearGradient><linearGradient id="linear-gradient-35" x1="-365.48" y1="2201.44" x2="-404.91" y2="2448.29" gradientTransform="translate(2438.85)" gradientUnits="userSpaceOnUse"><stop offset="0" stop-color="#311944"/><stop offset="1" stop-color="#a03976"/></linearGradient><linearGradient id="linear-gradient-36" x1="-237.71" y1="1138.16" x2="-425.13" y2="1805.56" gradientTransform="translate(2438.85)" gradientUnits="userSpaceOnUse"><stop offset="0" stop-color="#ff9085"/><stop offset="1" stop-color="#fb6fbb"/></linearGradient><linearGradient id="linear-gradient-37" x1="-538.38" y1="1464.94" x2="-505.81" y2="1570.65" xlink:href="#linear-gradient-36"/><linearGradient id="linear-gradient-38" x1="-835.36" y1="1601.93" x2="-869.02" y2="2433.5" gradientTransform="matrix(-1, 0, 0, 1, 1282, 0)" gradientUnits="userSpaceOnUse"><stop offset="0" stop-color="#ffc444"/><stop offset="1" stop-color="#f36f56"/></linearGradient><linearGradient id="linear-gradient-39" x1="-130.6" y1="1168.24" x2="-318.02" y2="1835.65" xlink:href="#linear-gradient-36"/><linearGradient id="linear-gradient-40" x1="-890" y1="1488.97" x2="-1345.71" y2="1114.42" gradientTransform="matrix(-1, 0, 0, 1, 1282, 0)" xlink:href="#linear-gradient-36"/><linearGradient id="linear-gradient-41" x1="-601.83" y1="1485.4" x2="-766.06" y2="1361.65" xlink:href="#linear-gradient-34"/><linearGradient id="linear-gradient-42" x1="-480.76" y1="1363.81" x2="-402.67" y2="1504.62" gradientTransform="translate(2438.85)" xlink:href="#linear-gradient-34"/><linearGradient id="linear-gradient-43" x1="-776.18" y1="1321.95" x2="-654.61" y2="1616.31" xlink:href="#linear-gradient-34"/><linearGradient id="linear-gradient-44" x1="-283.65" y1="1009.61" x2="-317.31" y2="1841.18" gradientTransform="translate(2438.85)" xlink:href="#linear-gradient-38"/><linearGradient id="linear-gradient-45" x1="-463.01" y1="1248.25" x2="-496.67" y2="2079.83" gradientTransform="translate(2438.85)" xlink:href="#linear-gradient-38"/><linearGradient id="linear-gradient-46" x1="-772.25" y1="1032.49" x2="-808.04" y2="1138.92" xlink:href="#linear-gradient-34"/><linearGradient id="linear-gradient-47" x1="-333.45" y1="1253.5" x2="-367.11" y2="2085.07" gradientTransform="translate(2438.85)" xlink:href="#linear-gradient-38"/><linearGradient id="linear-gradient-48" x1="2008.64" y1="340.53" x2="2266.45" y2="857.89" gradientTransform="matrix(1, 0, 0, 1, 0, 0)" xlink:href="#linear-gradient-38"/><linearGradient id="linear-gradient-49" x1="2160.25" y1="680.35" x2="2410.66" y2="1144.79" gradientTransform="matrix(1, 0, 0, 1, 0, 0)" xlink:href="#linear-gradient-38"/><linearGradient id="linear-gradient-50" x1="2091.48" y1="711.22" x2="2334.75" y2="1199.4" gradientTransform="matrix(1, 0, 0, 1, 0, 0)" xlink:href="#linear-gradient-38"/><linearGradient id="linear-gradient-51" x1="2132.83" y1="-159.57" x2="1596.25" y2="1181.86" gradientUnits="userSpaceOnUse"><stop offset="0" stop-color="#311944"/><stop offset="1" stop-color="#893976"/></linearGradient><linearGradient id="linear-gradient-52" x1="1795.77" y1="359.79" x2="2042.65" y2="817.69" gradientTransform="matrix(1, 0, 0, 1, 0, 0)" xlink:href="#linear-gradient-36"/><linearGradient id="linear-gradient-54" x1="-7438.25" y1="385.94" x2="-7196.25" y2="871.56" gradientTransform="matrix(-1, 0, 0, 1, -5443.13, 0)" xlink:href="#linear-gradient-36"/><linearGradient id="linear-gradient-55" x1="2148.69" y1="256.1" x2="2385.34" y2="312.01" xlink:href="#linear-gradient-51"/><linearGradient id="linear-gradient-56" x1="-7789.06" y1="191.85" x2="-7586.17" y2="568.14" gradientTransform="matrix(-1, 0, 0, 1, -5443.13, 0)" gradientUnits="userSpaceOnUse"><stop offset="0" stop-color="#e38ddd"/><stop offset="1" stop-color="#9571f6"/></linearGradient><linearGradient id="linear-gradient-57" x1="-7848.53" y1="216.71" x2="-7649.71" y2="615.69" gradientTransform="matrix(-1, 0, 0, 1, -5443.13, 0)" xlink:href="#linear-gradient-36"/><linearGradient id="linear-gradient-58" x1="534.78" y1="1617.31" x2="1370.15" y2="3401.83" gradientTransform="translate(-73.9)" gradientUnits="userSpaceOnUse"><stop offset="0" stop-color="#aa80f9"/><stop offset="1" stop-color="#6165d7"/></linearGradient><linearGradient id="linear-gradient-59" x1="918.5" y1="1882.93" x2="841.32" y2="2336.84" xlink:href="#linear-gradient-58"/><linearGradient id="linear-gradient-60" x1="534.78" y1="1617.31" x2="1370.15" y2="3401.84" xlink:href="#linear-gradient-58"/><linearGradient id="linear-gradient-61" x1="317.15" y1="1976.07" x2="1073.91" y2="1976.07" gradientTransform="matrix(1, 0, 0, 1, 0, 0)" xlink:href="#linear-gradient-58"/><linearGradient id="linear-gradient-62" x1="-2674.89" y1="3495.87" x2="-2501.39" y2="3495.87" gradientTransform="matrix(0.66, -0.75, 0.75, 0.66, 629.56, -1916.94)" gradientUnits="userSpaceOnUse"><stop offset="0" stop-color="#40447e"/><stop offset="1" stop-color="#3c3b6b"/></linearGradient><linearGradient id="linear-gradient-63" x1="1610.4" y1="1689.46" x2="3006.68" y2="3138.42" gradientTransform="translate(-230.71 134.62) rotate(5.62)" xlink:href="#linear-gradient-38"/><linearGradient id="linear-gradient-64" x1="559.19" y1="2192.02" x2="1417.07" y2="2647.68" gradientTransform="translate(20.92 -110.43) rotate(-3.5)" gradientUnits="userSpaceOnUse"><stop offset="0" stop-color="#311944"/><stop offset="1" stop-color="#6b3976"/></linearGradient><linearGradient id="linear-gradient-65" x1="234.35" y1="2396.15" x2="1012.25" y2="2251.62" gradientTransform="translate(20.92 -110.43) rotate(-3.5)" xlink:href="#linear-gradient-51"/><linearGradient id="linear-gradient-66" x1="823.95" y1="1822.14" x2="741.25" y2="2097.79" gradientTransform="matrix(1, 0, 0, 1, 0, 0)" xlink:href="#linear-gradient-38"/><linearGradient id="linear-gradient-67" x1="513.59" y1="2174.11" x2="167.42" y2="3432.55" gradientTransform="translate(20.92 -110.43) rotate(-3.5)" xlink:href="#linear-gradient-38"/><linearGradient id="linear-gradient-68" x1="560.09" y1="2315.27" x2="475.08" y2="1982.76" gradientTransform="translate(20.92 -110.43) rotate(-3.5)" xlink:href="#linear-gradient-38"/><linearGradient id="linear-gradient-69" x1="427.47" y1="2150.42" x2="81.29" y2="3408.86" gradientTransform="translate(20.92 -110.43) rotate(-3.5)" xlink:href="#linear-gradient-38"/><linearGradient id="linear-gradient-70" x1="551.16" y1="1761.17" x2="646.84" y2="1761.17" gradientTransform="matrix(1, 0, 0, 1, 0, 0)" xlink:href="#linear-gradient-38"/><linearGradient id="linear-gradient-71" x1="654.77" y1="2130.45" x2="868.01" y2="2130.45" gradientTransform="matrix(1, 0, 0, 1, 0, 0)" xlink:href="#linear-gradient-38"/><linearGradient id="linear-gradient-72" x1="1204.93" y1="1388.57" x2="1190.64" y2="1408.95" gradientTransform="translate(-369.77 170.47) rotate(6.1)" xlink:href="#linear-gradient-38"/><linearGradient id="linear-gradient-73" x1="1178.94" y1="1420.85" x2="1206.61" y2="1363.97" gradientTransform="translate(-369.77 170.47) rotate(6.1)" xlink:href="#linear-gradient-38"/><linearGradient id="linear-gradient-74" x1="1199.14" y1="1397.39" x2="1203.84" y2="1394.46" gradientTransform="matrix(1, 0, 0, 1, -526, 288.44)" xlink:href="#linear-gradient-38"/><linearGradient id="linear-gradient-75" x1="1203.42" y1="1382.15" x2="1189.06" y2="1399.16" gradientTransform="translate(2063.35 511.86) rotate(90)" xlink:href="#linear-gradient-38"/><linearGradient id="linear-gradient-76" x1="1174.18" y1="1406.46" x2="1191.63" y2="1406.46" gradientTransform="translate(-369.77 170.47) rotate(6.1)" xlink:href="#linear-gradient-38"/><linearGradient id="linear-gradient-77" x1="-11044.38" y1="1931.61" x2="-11043.21" y2="1931.61" gradientTransform="matrix(-0.95, -0.31, -0.31, 0.95, 2922.1, 402.54)" xlink:href="#linear-gradient-35"/><linearGradient id="linear-gradient-78" x1="-11044.26" y1="1962.76" x2="-11043.09" y2="1962.76" gradientTransform="matrix(-0.95, -0.31, -0.31, 0.95, 2922.1, 402.54)" xlink:href="#linear-gradient-35"/><linearGradient id="linear-gradient-79" x1="1033.29" y1="1057.42" x2="1060.12" y2="1002.27" gradientTransform="matrix(1.03, 0.11, -0.12, 1.09, -323.6, 418.45)" xlink:href="#linear-gradient-38"/><linearGradient id="linear-gradient-80" x1="1051.47" y1="988.62" x2="1045.69" y2="1007.81" gradientTransform="matrix(1.03, 0.11, -0.12, 1.09, -323.6, 418.45)" xlink:href="#linear-gradient-38"/><linearGradient id="linear-gradient-81" x1="1051.5" y1="988.53" x2="1045.71" y2="1007.77" gradientTransform="matrix(1.03, 0.11, -0.12, 1.09, -323.6, 418.45)" xlink:href="#linear-gradient-38"/><linearGradient id="linear-gradient-82" x1="1097.29" y1="1405.93" x2="1129.73" y2="1405.93" gradientTransform="translate(-369.77 170.47) rotate(6.1)" xlink:href="#linear-gradient-38"/><linearGradient id="linear-gradient-83" x1="1100.42" y1="1411.69" x2="1074.38" y2="1426.84" gradientTransform="translate(1990.71 576.2) rotate(90)" xlink:href="#linear-gradient-38"/><linearGradient id="linear-gradient-84" x1="1081.91" y1="1405.93" x2="1117.58" y2="1405.93" gradientTransform="translate(-369.77 170.47) rotate(6.1)" xlink:href="#linear-gradient-38"/><linearGradient id="linear-gradient-85" x1="1081.91" y1="1405.47" x2="1103.36" y2="1405.47" gradientTransform="translate(-369.77 170.47) rotate(6.1)" xlink:href="#linear-gradient-38"/><linearGradient id="linear-gradient-86" x1="659.87" y1="2179.47" x2="938.98" y2="2179.47" gradientTransform="translate(20.92 -110.43) rotate(-3.5)" xlink:href="#linear-gradient-62"/><linearGradient id="linear-gradient-87" x1="-337.65" y1="2983.19" x2="-199.02" y2="2983.19" gradientTransform="translate(439.32 -784.3) rotate(-22.13)" xlink:href="#linear-gradient-62"/><linearGradient id="linear-gradient-88" x1="1069.12" y1="2222.69" x2="2465.45" y2="3671.71" gradientTransform="translate(20.92 -110.43) rotate(-3.5)" xlink:href="#linear-gradient-38"/><linearGradient id="linear-gradient-89" x1="489.7" y1="2321.79" x2="1129.21" y2="2259.44" xlink:href="#linear-gradient-64"/><linearGradient id="linear-gradient-90" x1="243.81" y1="2447.06" x2="1021.71" y2="2302.53" gradientTransform="translate(20.92 -110.43) rotate(-3.5)" xlink:href="#linear-gradient-51"/><linearGradient id="linear-gradient-91" x1="521.28" y1="2345.68" x2="991.91" y2="2245.09" xlink:href="#linear-gradient-64"/><linearGradient id="linear-gradient-92" x1="-1281.83" y1="1155.22" x2="-973.25" y2="1480.51" gradientTransform="matrix(-1, 0, 0, 1, 720.25, 0)" xlink:href="#linear-gradient-58"/><linearGradient id="linear-gradient-93" x1="-1082.97" y1="1190.9" x2="-957.25" y2="1323.44" gradientTransform="matrix(-1, 0, 0, 1, 720.25, 0)" xlink:href="#linear-gradient-58"/><linearGradient id="linear-gradient-94" x1="-1119.33" y1="1181.11" x2="-1272.12" y2="1328.29" gradientTransform="matrix(-1, 0, 0, 1, 720.25, 0)" xlink:href="#linear-gradient-58"/><linearGradient id="linear-gradient-95" x1="-1112.4" y1="1196.49" x2="-1258.83" y2="1337.53" gradientTransform="matrix(-1, 0, 0, 1, 720.25, 0)" xlink:href="#linear-gradient-58"/><linearGradient id="linear-gradient-96" x1="-1105.52" y1="1210.6" x2="-1246.04" y2="1345.97" gradientTransform="matrix(-1, 0, 0, 1, 720.25, 0)" xlink:href="#linear-gradient-58"/><linearGradient id="linear-gradient-97" x1="-1098.7" y1="1223.6" x2="-1233.75" y2="1353.7" gradientTransform="matrix(-1, 0, 0, 1, 720.25, 0)" xlink:href="#linear-gradient-58"/><linearGradient id="linear-gradient-98" x1="1096.53" y1="1721.68" x2="1398.85" y2="2040.38" gradientTransform="translate(-208.27)" xlink:href="#linear-gradient-38"/><linearGradient id="linear-gradient-99" x1="1297.87" y1="1751.31" x2="1428.15" y2="1888.66" gradientTransform="translate(-208.27)" xlink:href="#linear-gradient-38"/><linearGradient id="linear-gradient-100" x1="-235.1" y1="1809.23" x2="-214.71" y2="1809.23" gradientTransform="matrix(-1, 0, 0, 1, 720.25, 0)" xlink:href="#linear-gradient-38"/><linearGradient id="linear-gradient-101" x1="1240.29" y1="1748.97" x2="1094.03" y2="1889.85" gradientTransform="translate(-208.27)" xlink:href="#linear-gradient-38"/><linearGradient id="linear-gradient-102" x1="1250.39" y1="1762.04" x2="1107.61" y2="1899.57" gradientTransform="translate(-208.27)" xlink:href="#linear-gradient-38"/><linearGradient id="linear-gradient-103" x1="1260.38" y1="1774.47" x2="1120.93" y2="1908.8" gradientTransform="translate(-208.27)" xlink:href="#linear-gradient-38"/><linearGradient id="linear-gradient-104" x1="1270.26" y1="1786.31" x2="1134" y2="1917.56" gradientTransform="translate(-208.27)" xlink:href="#linear-gradient-38"/></defs><title>play</title><g class="cls-1"><g id="Illustration"><path class="cls-2" d="M2358.11,1101.62C2301.6,731.8,2070,277.45,1612.3,229.9c0,0-347.47-42.27-690,21.79C719,289.71,540.75,402.88,428,565.53s-150.47,361-104.74,550.07c29.69,122.81,49.76,249.92,44.26,376.12-9.59,219.63-4.08,424.65,209.08,555.63,190.32,117,429.84,220.11,658.34,238.17,155.29,12.28,329.44-7.59,479.11-48C2476.76,2031.46,2414.61,1471.44,2358.11,1101.62Z"/><path class="cls-3" d="M2654.1,1694.77,2471,803.55c-36.35-176.93-205.56-285.72-373.18-237.14l-75.74,22a302.85,302.85,0,0,1-83.69,12l-169.13.37-695.9,1.49-183.26.39a352.19,352.19,0,0,1-92.92-12.28l-85.4-23.13C518.24,514.74,316.12,634,271.81,830L43.5,1839.91c-38.18,168.9,57.82,330.33,222.66,376.68h0c183.37,51.55,381.48-63.12,432-247.05l78.39-285.61c16.26-59.25,69.73-102.19,130.38-105l1016.31-46.78c55-2.53,102.9,33.51,117.4,88l69.31,260.45c44.14,165.88,213.74,246.13,365.74,175.59h0C2608.39,1994.59,2684.05,1840.58,2654.1,1694.77Z"/><path class="cls-4" d="M1763.46,1070.44l-566.1,15.8c-50.4,1.41-91.45-45.14-91.45-104V602.37l742.84-1.84V965.67C1848.75,1022.22,1810.67,1069.12,1763.46,1070.44Z"/><path class="cls-5" d="M2227.58,1831.4c-1.78-66.5,29.89-100.75,23.13-202.37-3.16-47.51-12.15-182.55-101.18-251.51-85.3-66.06-203.15-39.78-355.58-5.78-196.42,43.8-188.81,90.84-326.68,109.85-201,27.72-272.66-64.61-419.18-17.34-73,23.56-128.82,70.28-170.7,119.41a137,137,0,0,1,29.5-4.71l1016.31-46.78c55-2.53,102.9,33.51,117.4,88l69.31,260.45c35.82,134.61,154.25,212.82,278.85,199.83C2261.23,1979.6,2229.28,1894.74,2227.58,1831.4Z"/><path class="cls-6" d="M1005,979.89c0,165.11-135.12,303.36-304.07,308.85-171.53,5.58-312.5-127.39-312.5-297.07s141-308,312.5-309C869.89,681.7,1005,814.78,1005,979.89Z"/><path class="cls-7" d="M1349.85,1372.85c0,133.46-107.36,246.84-241.26,253.32C973.05,1632.72,862,1527.5,862,1391.07s111.09-250,246.63-253.52C1242.49,1134,1349.85,1239.39,1349.85,1372.85Z"/><path class="cls-8" d="M1303.35,1374.58c0,107.74-86.77,199.09-194.76,204.08-109,5-198.25-79.73-198.25-189.4s89.2-201.1,198.25-204.21C1216.58,1182,1303.35,1266.85,1303.35,1374.58Z"/><path class="cls-9" d="M1264.8,1376.76c0,75-60.37,138.8-135.66,142.45-76.22,3.68-138.69-55.49-138.69-132.21s62.47-140.55,138.69-142.55C1204.43,1242.46,1264.8,1301.71,1264.8,1376.76Z"/><path class="cls-10" d="M1238.66,1377.74c0,60.58-48.8,112-109.52,114.75-61.33,2.84-111.48-44.83-111.48-106.5s50.15-113.09,111.48-114.83C1189.86,1269.43,1238.66,1317.15,1238.66,1377.74Z"/><path class="cls-11" d="M2068.39,1343c0,128.6-99.66,237.66-223.9,243.67-125.71,6.09-228.71-95.41-228.71-226.77s103-240.54,228.71-243.85C1968.73,1112.81,2068.39,1214.44,2068.39,1343Z"/><path class="cls-12" d="M2025.22,1344.64c0,103.81-80.54,191.68-180.73,196.31-101.15,4.68-183.86-77.1-183.86-182.69s82.71-193.54,183.86-196.42C1944.68,1159,2025.22,1240.84,2025.22,1344.64Z"/><path class="cls-13" d="M2009.63,1346.36c0,75.05-60.38,138.81-135.67,142.45-76.21,3.68-138.69-55.49-138.69-132.2s62.48-140.56,138.69-142.56C1949.25,1212.07,2009.63,1271.32,2009.63,1346.36Z"/><path class="cls-14" d="M1983.48,1347.34c0,60.58-48.8,112-109.52,114.75-61.32,2.84-111.48-44.83-111.48-106.5s50.16-113.08,111.48-114.83C1934.68,1239,1983.48,1286.76,1983.48,1347.34Z"/><path class="cls-15" d="M1005.08,799.31h0a37.13,37.13,0,0,1-37.67-37.14v-66a37.84,37.84,0,0,1,37.67-37.73h0a37.26,37.26,0,0,1,37.53,37.25v65.78A38,38,0,0,1,1005.08,799.31Z"/><path class="cls-16" d="M1918.55,788.26h0c-19,.21-34.33-15.68-34.33-35.48v-63c0-19.8,15.38-35.93,34.33-36h0c18.91-.09,34.22,15.84,34.22,35.58v62.82C1952.77,771.88,1937.46,788.05,1918.55,788.26Z"/><path class="cls-17" d="M733.27,766.16l-64.76.61c-19.08.18-34.58,15.52-34.58,34.27v73.69a33.06,33.06,0,0,0,5.78,18.69L669,936.24a34,34,0,0,0,28.73,14.64l6.43-.11a35.22,35.22,0,0,0,28.64-15.61l29-43.57a33.86,33.86,0,0,0,5.71-18.75V799.59A33.62,33.62,0,0,0,733.27,766.16Z"/><path class="cls-18" d="M733.27,1204l-64.76,1.87c-19.08.55-34.58-14.2-34.58-32.95v-73.69a34.1,34.1,0,0,1,5.78-18.91L669,1036.38a35.53,35.53,0,0,1,28.73-15.74l6.43-.13A33.73,33.73,0,0,1,732.79,1035l29,42.46a32.82,32.82,0,0,1,5.71,18.53v73.26C767.54,1187.91,752.21,1203.46,733.27,1204Z"/><path class="cls-19" d="M475.72,957.85v64.3c0,18.88,15.71,33.84,35.07,33.41l75.74-1.66a35.84,35.84,0,0,0,19.21-6.1L650,1018.1a34.54,34.54,0,0,0,15.45-28.56v-6.33a33.07,33.07,0,0,0-15.45-28l-44.22-28a34.88,34.88,0,0,0-19.21-5.36l-75.74,1.23C491.43,923.41,475.72,939,475.72,957.85Z"/><path class="cls-20" d="M921.74,950v63a34.56,34.56,0,0,1-33.81,34.26l-73.73,1.63a34,34,0,0,1-18.87-5.21L751.68,1016a32.89,32.89,0,0,1-15.33-27.84v-6.31a34.38,34.38,0,0,1,15.33-28.43l43.65-29.32a34.9,34.9,0,0,1,18.87-5.93l73.73-1.2A33,33,0,0,1,921.74,950Z"/><path class="cls-21" d="M747.72,769.37,683,770c-19.09.17-34.58,15.52-34.58,34.27v73.69a33.06,33.06,0,0,0,5.78,18.69l29.28,42.81a34,34,0,0,0,28.73,14.65l6.42-.11a35.25,35.25,0,0,0,28.64-15.61l29-43.57A33.79,33.79,0,0,0,782,876.05V802.79A33.63,33.63,0,0,0,747.72,769.37Z"/><path class="cls-22" d="M747.72,1207.21,683,1209.07c-19.09.56-34.58-14.2-34.58-33v-73.69a34.12,34.12,0,0,1,5.78-18.91l29.28-43.93a35.45,35.45,0,0,1,28.73-15.74l6.42-.14a33.74,33.74,0,0,1,28.64,14.52l29,42.46a32.73,32.73,0,0,1,5.72,18.53v73.25C782,1191.11,766.66,1206.66,747.72,1207.21Z"/><path class="cls-23" d="M490.18,961.06v64.3c0,18.88,15.71,33.84,35.06,33.41L601,1057.1A36,36,0,0,0,620.2,1051l44.22-29.7a34.53,34.53,0,0,0,15.44-28.56v-6.33a33,33,0,0,0-15.44-28l-44.22-28A34.83,34.83,0,0,0,601,925.08l-75.74,1.23C505.89,926.62,490.18,942.18,490.18,961.06Z"/><path class="cls-24" d="M936.2,953.17v63a34.57,34.57,0,0,1-33.81,34.26l-73.74,1.62a33.75,33.75,0,0,1-18.86-5.21l-43.66-27.65a32.9,32.9,0,0,1-15.33-27.85v-6.3a34.37,34.37,0,0,1,15.33-28.43l43.66-29.33a34.84,34.84,0,0,1,18.86-5.93l73.74-1.19A33,33,0,0,1,936.2,953.17Z"/><path class="cls-25" d="M1946.47,960.24c0,157.48,121.48,281.2,269.43,276.38,145.89-4.74,262.67-133,262.67-286.54s-116.78-277.33-262.67-276.5C2068,674.41,1946.47,802.77,1946.47,960.24Z"/><path class="cls-26" d="M2283.44,777.55c0,39.48-30.18,71.91-67.54,72.43s-68-31.25-68-71,30.49-72.17,68-72.44S2283.44,738.06,2283.44,777.55Z"/><path class="cls-27" d="M2283.44,1130.07c0,39.48-30.18,72.43-67.54,73.58s-68-30.11-68-69.85,30.49-72.68,68-73.59S2283.44,1090.59,2283.44,1130.07Z"/><path class="cls-28" d="M2047.47,886c38-.59,68.63,31.19,68.63,71s-30.67,72.75-68.63,73.6-69.09-30.92-69.09-71S2009.37,886.62,2047.47,886Z"/><path class="cls-29" d="M2381.66,880.78c36.77-.57,66.49,30.71,66.49,69.88s-29.72,71.6-66.49,72.43-66.91-30.46-66.91-69.88S2344.76,881.36,2381.66,880.78Z"/><path class="cls-30" d="M2297.9,780.75c0,39.48-30.19,71.92-67.55,72.44s-68-31.25-68-71,30.49-72.17,68-72.45S2297.9,741.27,2297.9,780.75Z"/><path class="cls-31" d="M2297.9,1133.28c0,39.48-30.19,72.42-67.55,73.58s-68-30.11-68-69.85,30.49-72.69,68-73.59S2297.9,1093.8,2297.9,1133.28Z"/><path class="cls-32" d="M2061.92,889.23c38-.6,68.64,31.18,68.64,71s-30.68,72.75-68.64,73.61-69.08-30.92-69.08-71S2023.82,889.82,2061.92,889.23Z"/><path class="cls-33" d="M2396.12,884c36.77-.58,66.48,30.71,66.48,69.88s-29.71,71.59-66.48,72.42-66.92-30.45-66.92-69.87S2359.22,884.57,2396.12,884Z"/><path class="cls-34" d="M354.27,2103.14c5.78-73.16,104.3-84,124.31-176.34,27.42-126.52-139.32-190.71-124.31-326.68,14.67-133,187-188,161.89-268.85-12.49-40.14-57.35-34.1-118.53-89.62-86-78.05-105.57-188.19-109.86-219.71-26.69-196.2,130.56-343.42,159-370a508.61,508.61,0,0,1,147.75-96.14C442.85,566.31,307.15,673.67,271.81,830L43.5,1839.91c-38.18,168.9,57.82,330.33,222.66,376.68h0a336.15,336.15,0,0,0,156.71,5.75C365.21,2172.5,351.9,2133.07,354.27,2103.14Z"/><path class="cls-35" d="M1643.62,941c-82-45.28-130.68,8.69-190.19-32.36-69.4-47.88-26.28-137.16-96-190.24-58.74-44.71-114.9-.84-199.78-34.17a210,210,0,0,1-51.73-29.57V982.26c0,58.84,41,105.39,91.45,104l566.1-15.8a74.6,74.6,0,0,0,33.51-9.13,235,235,0,0,1-40.11-18.81C1697,1007.08,1698.85,971.48,1643.62,941Z"/><path class="cls-36" d="M2125.15,1628.38c-55.7-27.2-164.33,71.32-217.2,165.69-21.07,37.6-45.8,81.75-39.73,134.24,10.75,93.06,114,174.68,256.06,201.93l12-42.86c-15.53-16.17-38.77-39.53-68.46-66.3-45.6-41.11-55-43.85-57.16-56.83-7.17-42.51,102.16-78.1,141-152.85C2185.14,1747.13,2167.93,1649.27,2125.15,1628.38Z"/><path class="cls-37" d="M2052,2376.29s9.15,22.56,4.6,31.39c-4.77,9.28-18.57,6.52-57.43,8-39.79,1.49-48.79,4.69-50.38.69-3.18-8,27.74-33.36,63.91-40.06A110,110,0,0,1,2052,2376.29Z"/><path class="cls-38" d="M2043.78,2342.57l-21.63,33.72s10,9.84,26.91,6.17l23.8-31.94Z"/><g class="cls-39"><path class="cls-36" d="M2151.71,1811.4c33.43-64.27,16.22-162.13-26.56-183-11.22-5.48-24.61-5.79-39.24-2.12,7.7,22.24,6.17,38.32,2.37,49.71-17,50.81-90.24,45-113.14,102.86-14.47,36.55,8.55,54.69-12,84-21.29,30.37-56.11,25.28-66.86,54.86-8,22,7.79,34.57,1.71,53.14-1.69,5.17-5,10.37-10.63,15.3,37.65,67.72,125.27,122.71,236.91,144.12l12-42.86c-15.53-16.17-38.77-39.53-68.46-66.3-45.6-41.11-55-43.85-57.16-56.83C2003.49,1921.74,2112.82,1886.15,2151.71,1811.4Z"/></g><path class="cls-36" d="M2087.14,1648.55c2.41,97.4,1.06,202.71-6,314.82a3597.8,3597.8,0,0,1-46.5,392.81l27.49,8.74c94.23-91.81,122.43-172.58,130.15-230.68,5.46-41.07-2.8-44.6,4.56-96,14-97.88,50.62-131.4,76.31-223,9.64-34.39,20.38-86.35,19.7-154.08Z"/><path class="cls-40" d="M2019.64,1474.08c1.71.39,9.14,2.87,12.07,33.9,7.09,74.83-31.87,105.13-22.28,145.71,9.21,39,56.17,57.85,104.51,77.3,32.31,13,132.22,53.21,190.33,8,24.45-19,27.13-42,44.57-126.44,44.33-214.54,61.5-233,42.86-279.42-32-79.76-117.73-112.79-132-118.28-152.07-58.6-331.65,49.1-402.61,172.82-9.34,16.29-65.15,113.59-25.94,159.74,23.72,27.92,78.23,32.42,114.2,13.38C1993.41,1535.36,2003.62,1470.41,2019.64,1474.08Z"/><path class="cls-41" d="M1853.43,1530.83a3.43,3.43,0,0,1-3.12-4.85c1.31-2.85,32.7-70.22,105.24-96.8a3.42,3.42,0,1,1,2.35,6.43c-69.77,25.57-101,92.55-101.34,93.22A3.43,3.43,0,0,1,1853.43,1530.83Z"/><path class="cls-42" d="M2138.22,1453.89c-.4-3.1-3.54-24.47-21.39-31.32-8.88-3.41-24.48-4.41-30.55,5.34-3.82,6.13-3.48,15.86,1.53,20.63,6.33,6,14.59-1.14,26,3.82,13.68,6,15.9,22.49,20.62,21.39C2138.12,1472.88,2139.28,1462.06,2138.22,1453.89Z"/><path class="cls-43" d="M2292.27,1305.7c-9.59,26.13,19.21,48.77,6.86,77.14-17.69,40.66-88,19.79-113.14,60-29.79,47.65,38.43,125.81,10.29,152.57-12.83,12.19-27.65-3.43-65.14,5.14-53.4,12.2-69.45,54.39-94.28,48-7.81-2-17.28-9.11-25.25-30.94-3.47,12.11-5.13,23.61-2.18,36.08,9.21,39,56.17,57.85,104.51,77.3,32.31,13,132.22,53.21,190.33,8,24.45-19,27.13-42,44.57-126.44,44.33-214.54,61.5-233,42.86-279.42-10.17-25.32-25.75-45.92-42.74-62.44C2312.34,1278.78,2297.3,1292,2292.27,1305.7Z"/><path class="cls-44" d="M2139.33,1433.75c4.11,3.73,50.11,53.14,100.16,40.63,43.58-10.9,70.34-53.28,75-88.93,11.15-84.8-99.33-156-85.71-173.14,8-10.09,50.66,8.64,80.57,27.43,24.52,15.41,127.26,80,124.51,188.22-.28,11-2,80.6-48.13,115.35-62.22,46.92-158.38,45.67-261.11-67.76C2130.33,1459.35,2133.64,1449.94,2139.33,1433.75Z"/><path class="cls-45" d="M1914.72,1329.85l49.53,158.23a12.82,12.82,0,0,0,11.78,9l64.77,9.42a12.82,12.82,0,0,0,13-15.53l-43.68-162A12.79,12.79,0,0,0,1998,1318.9l-70.63-5.69A12.82,12.82,0,0,0,1914.72,1329.85Z"/><path class="cls-46" d="M1917.1,1335.05l48.07,153.57a12.45,12.45,0,0,0,11.43,8.72l56.92,9.14a12.44,12.44,0,0,0,12.6-15.07l-42.67-157.28a12.44,12.44,0,0,0-11.76-9.8l-62.34-5.42A12.43,12.43,0,0,0,1917.1,1335.05Z"/><path class="cls-47" d="M2046.12,1491.41l-40.76-150.27a54.81,54.81,0,0,0-11.5,7.32c-16,13.77-25.25,38.7-19.95,58.63,6.76,25.42,32.7,26.21,36.29,47.36,2.8,16.56-10.63,34.08-21.72,44.79l45,7.24A12.44,12.44,0,0,0,2046.12,1491.41Z"/><path class="cls-48" d="M2117.94,1191.2a22.44,22.44,0,0,1-16.27,28c-15,3.63-33.31,8.64-41.2,13.15-14.5,8.3,44.15-1.28,98.1-2.55,33.69-.79,58.85-4.57,73-7.3a3.74,3.74,0,0,0,.42-7.23c-13.48-4.39-35.4-10.85-53.93-13.18-22.93-2.88-47.52-53.49-47.52-53.49l-19.66,17.86Z"/><path class="cls-49" d="M1944.61,1442.59l3-4.94a21.16,21.16,0,0,1,23.08-15.68l15.89,2a8.55,8.55,0,0,1,7.32,10.25c-1.48,7.09-5.29,15.58-15,14.92-16.59-1.12-27.2,23.06-27.2,23.06l-6.36-9A18.7,18.7,0,0,1,1944.61,1442.59Z"/><path class="cls-50" d="M2074.14,1165.26c-16.95-2.51-35.94-16.76-35.57-28.53.51-16.18,37.5-25,56.18-29.52s26.68-2.87,32,1.22,9.08,11.64,10.26,18.07c.64,3.51.67,8.34.07,18-.53,8.54-.37,8.17-.59,10.69-.54,6.06-2.19,16.71-8.1,31.49a76.7,76.7,0,0,0-9.83-9.1,68.26,68.26,0,0,0-15-8.82C2091.42,1163.8,2084.43,1166.79,2074.14,1165.26Z"/><path class="cls-51" d="M2137.45,1170.17s-1.1,23.62-23.35,34c-19.92,9.28-46.36-32.31-39.08-48.19,2.42-5.3,9.94-11.06,17.64-12.85,4.54-1,6.78-.15,14.17-2,6.83-1.73,8.15-3.31,10.79-2.78,3.29.66,7.49,4.41,10.63,19.08,1.64-5.72,5.26-9.56,9.19-9.8a7.53,7.53,0,0,1,3.93,1.1C2146.76,1152.15,2145.7,1160.91,2137.45,1170.17Z"/><path class="cls-52" d="M2415.15,805.65c0-89.4-82.46-159.19-180.69-156-55.93,1.82-104.6,27-135,64.26v0c-.19.23-.36.47-.55.7-.53.65-1,1.32-1.55,2q-1.41,1.8-2.76,3.63c-.53.73-1.06,1.45-1.58,2.19-.87,1.22-1.71,2.45-2.54,3.7-.47.71-1,1.42-1.42,2.14-.92,1.44-1.81,2.89-2.69,4.36-.31.53-.65,1-1,1.59-1.15,2-2.26,4-3.31,6-.29.54-.54,1.09-.82,1.63q-1.16,2.29-2.24,4.62c-.35.76-.68,1.53-1,2.3-.61,1.37-1.2,2.75-1.76,4.14-.33.81-.65,1.62-1,2.44-.55,1.43-1.07,2.87-1.57,4.31-.27.76-.54,1.51-.79,2.27-.6,1.83-1.16,3.66-1.69,5.51-.1.39-.23.76-.34,1.15q-.91,3.34-1.68,6.75c-.15.66-.27,1.34-.41,2-.34,1.62-.66,3.25-.94,4.89-.14.84-.27,1.68-.4,2.52-.23,1.52-.44,3-.63,4.58-.1.86-.2,1.72-.29,2.58-.16,1.62-.29,3.24-.4,4.87,0,.76-.11,1.52-.15,2.28-.12,2.38-.2,4.77-.2,7.18,0,57.37,34.75,108,86.84,135.07q7.18,3.74,14.8,6.87c2.55,1.05,5.12,2,7.73,3a191.89,191.89,0,0,0,59.28,11.1h0c2.89.09,5.76.1,8.63.06,1,0,1.92-.07,2.88-.1,1.9-.05,3.79-.11,5.67-.22,1.15-.06,2.29-.17,3.43-.25,1.68-.13,3.36-.26,5-.43,1.22-.12,2.43-.28,3.64-.42,1.58-.19,3.15-.39,4.72-.62,1.25-.18,2.48-.39,3.72-.59,1.52-.25,3-.51,4.53-.8,1.25-.24,2.5-.5,3.75-.76,1.46-.31,2.92-.64,4.38-1,1.25-.3,2.49-.6,3.73-.92,1.43-.37,2.86-.76,4.28-1.16,1.23-.35,2.45-.7,3.66-1.07.45-.13.91-.25,1.36-.39l0,0C2365.8,932.28,2415.15,874.58,2415.15,805.65Z"/><path class="cls-53" d="M2401.66,805.68c0,89.17-82,159.06-179.78,156.2-94.09-2.74-167.83-72.38-167.83-155.63s73.74-153.13,167.83-156.19C2319.61,646.88,2401.66,716.5,2401.66,805.68Z"/><path class="cls-54" d="M2210.64,714.05l-26.33,48.44-53.12,6.38c-7.66.91-11.28,10.47-6.13,16.2l35.87,39.9-12.23,54.92c-1.8,8.07,6,14.76,13.27,11.28l50-24,48.51,29.44a9.93,9.93,0,0,0,15-10L2268,829.36l42-38.28a10,10,0,0,0-5-17.19l-55.16-9.62-22.11-49.94C2224.57,707.15,2214.47,707,2210.64,714.05Z"/><g class="cls-55"><path class="cls-56" d="M2264.38,923.08c-21.2-46.69.24-89.83-28.4-119.78s-65.65-2-104.76-26c-14.95-9.21-31.47-26.82-43.68-63.15-21.06,25.86-33.49,57.74-33.49,92.13,0,83.25,73.74,152.89,167.83,155.63a191.65,191.65,0,0,0,63.09-8.63A107.75,107.75,0,0,1,2264.38,923.08Z"/></g><path class="cls-57" d="M2053.48,485.4a133.39,133.39,0,0,1-.3,14c-.22,2-.25,3.95-.56,5.89-.61,3.9-1.28,7.76-2.25,11.54-.48,1.9-.94,3.79-1.48,5.66-.38,1.23-.76,2.48-1.16,3.71-9.65,28.91-29.3,54-55.49,72.66-.56.4-1.1.8-1.67,1.18a182,182,0,0,1-29.14,16.51l-1.94.86q-6.85,3-14,5.53c-2,.71-4.12,1.4-6.2,2-1.4.45-2.79.87-4.21,1.27-2.11.62-4.24,1.19-6.39,1.73-1.42.36-2.86.71-4.31,1a212.15,212.15,0,0,1-57,5.14c-1.47-.07-2.94-.15-4.38-.24-.43,0-.85-.07-1.25-.09l-.36,0c-.92-.07-1.84-.12-2.74-.21-.48,0-.92-.07-1.37-.12l-3-.28-1.28-.17c-1-.09-2-.21-3.07-.35l-1.11-.15c-1.09-.14-2.18-.28-3.29-.45l-.83-.14c-1.21-.16-2.39-.35-3.6-.57-.16,0-.33-1.69-.47-1.72-1.35-.23-2.7-2.38-4-2.38h0c-11.26,0-22.09-3.53-32.38-7.34,0,0,0,.8,0,.78-3.21-1.18-6.38-2.05-9.51-3.4-2.76-1.2-5.49-2.25-8.16-3.55-1.3,1-2.81,2.23-4.49,3.39A179.82,179.82,0,0,1,1726.17,580a90.68,90.68,0,0,0,5.11-7.64c-22.17-25.27-35.18-56.32-35.18-89.42,0-79.37,74.83-146,171.22-148.9,3.14-.09,5.44-.11,8.54-.06,94.44,1.2,173.77,63.9,176.67,144.72v3.66C2052.53,483.34,2053.48,484.36,2053.48,485.4Z"/><path class="cls-58" d="M2041.54,484.86c0,84.76-82,150.2-180.21,149-2.27,0-4.56-.09-6.86-.19-2.08-.09-4.16-.21-6.22-.38s-4.21-.33-6.29-.54c-.43-.05-.86-.07-1.28-.14-1.35-.14-2.67-.29-4-.48s-2.63-.33-4-.54c-1.9-.26-3.79-.57-5.66-.9l-3.36-.61a204.31,204.31,0,0,1-32.36-9c-3.17-1.18-6.27-2.41-9.32-3.74A180,180,0,0,1,1726.17,580c-26.85-26.59-42.91-60.85-42.91-97.64,0-79.37,74.83-146,171.21-148.9a207.55,207.55,0,0,1,22.22.47c78.37,5.66,143.69,53.7,160.57,118v0c.42,1.61.82,3.24,1.18,4.88.12.53.23,1.06.34,1.59.27,1.3.54,2.6.77,3.92.35,1.93.66,3.87.91,5.82,0,0,0,0,0,.1.1.73.19,1.49.26,2.22.12.92.22,1.85.29,2.77s.19,2.06.23,3.08c0,.3,0,.63.07.94.08,1.18.12,2.37.15,3.55S2041.54,483.53,2041.54,484.86Z"/><path class="cls-58" d="M2041.54,484.86c0,84.76-82,150.2-180.21,149-2.27,0-4.56-.09-6.86-.19-2.08-.09-4.16-.21-6.22-.38s-4.21-.33-6.29-.54c-.43-.05-.86-.07-1.28-.14-1.35-.14-2.67-.29-4-.48s-2.63-.33-4-.54c-1.9-.26-3.79-.57-5.66-.9l-3.36-.61a204.31,204.31,0,0,1-32.36-9c-3.17-1.18-6.27-2.41-9.32-3.74A180,180,0,0,1,1726.17,580c-26.85-26.59-42.91-60.85-42.91-97.64,0-79.37,74.83-146,171.21-148.9a207.55,207.55,0,0,1,22.22.47c78.37,5.66,143.69,53.7,160.57,118v0c.42,1.61.82,3.24,1.18,4.88.12.53.23,1.06.34,1.59.27,1.3.54,2.6.77,3.92.35,1.93.66,3.87.91,5.82,0,0,0,0,0,.1.1.73.19,1.49.26,2.22.12.92.22,1.85.29,2.77s.19,2.06.23,3.08c0,.3,0,.63.07.94.08,1.18.12,2.37.15,3.55S2041.54,483.53,2041.54,484.86Z"/><g class="cls-59"><path class="cls-60" d="M1811.52,593.92c21.22-43.35-.24-84.85,28.51-113,29.63-29,68.79-1.65,111.8-25.66,16.86-9.42,35.78-27.57,50-65.07,24.85,25.94,39.75,58.83,39.75,94.65,0,86.74-85.85,153.26-187.07,148.8a208.6,208.6,0,0,1-63.17-12.59A92.62,92.62,0,0,0,1811.52,593.92Z"/></g><path class="cls-54" d="M1812.42,524.9V501.29h17.06L1825.77,489h-37L1785,501.29h14.06V524.9h-57.33V501.29H1754l24.34-79.14H1771V398.93h69.23L1872,501.29h12.64V524.9Zm6.67-57.51-11.93-38.89-11.69,38.89Z"/><path class="cls-54" d="M1894,442.36c7.18-4.36,22.66-12.81,39.24-12.81,21.63,0,48.85,8.13,48.85,37.15v35.1h10.79v23.1h-38.56l-4.33-8.13c-6.65,9.21-17.79,11.56-24.31,11.56-17.13,0-35.51-9.16-35.51-30.12,0-20.35,17.13-33.13,37.48-33.13,10.63,0,17,5.16,17.89,6.26v-6.26c0-8.15-7.43-10.11-17.16-10.11-10.62,0-20,4.51-26.86,8.26Zm51.54,49.73c-.56-.89-3.1-5.23-10.64-5.23-7.25,0-10.48,4-10.48,9.55,0,5,4.11,8.46,9.53,8.46s9.95-3.26,11.59-5.92Z"/><path class="cls-61" d="M2305.46,168.47c77.93,2.39,143.39,50,156.15,110.21a2,2,0,0,0,0,.24q1,4.95,1.59,10c0,.22.05.44.07.66.16,1.58.29,3.16.38,4.75,0,.28,0,.57,0,.86.07,1.62.13,3.25.13,4.89,0,70-71.45,123-158.41,118.54-2.32-.12-4.62-.29-6.9-.49l-.68-.05q-3.24-.3-6.45-.7l-1-.12q-3.1-.39-6.17-.89l-1.16-.19q-3-.51-6-1.09l-1.2-.25q-3-.6-5.87-1.3c-.38-.08-.75-.18-1.13-.27q-2.9-.7-5.75-1.49l-1-.3q-2.57-.72-5.1-1.52l-1.28-.4c-1.71-.55-3.4-1.13-5.08-1.72l-1.09-.38h0c-57.81-20.85-98.46-67.78-98.46-120.27C2151.16,219,2219.74,165.84,2305.46,168.47Z"/><path class="cls-62" d="M2134.66,287.18c0,68.18,68.58,127,154.3,131.44,87,4.5,158.41-48.55,158.41-118.54S2375.92,171.14,2289,168.47C2203.24,165.84,2134.66,219,2134.66,287.18Z"/><path class="cls-54" d="M2233.3,265.74c0,20,23.31,67.63,39.77,98.77,6.86,13,24.93,13.84,31.81,1.5,16.6-29.74,40.25-75.69,40.25-95.9,0-31.19-25.21-57.33-56.17-58.4C2258.16,210.66,2233.3,234.85,2233.3,265.74Zm25.71,1a28.72,28.72,0,0,1,29.95-29,31.55,31.55,0,0,1,30.09,31.35,28.72,28.72,0,0,1-30.09,29A31.58,31.58,0,0,1,2259,266.74Z"/><g class="cls-59"><path class="cls-63" d="M2251.12,384.9c18.77-35.95-.2-71.24,25.19-94,25.9-23.22,59.73.73,96.36-17.65,14.22-7.14,30.07-21.27,41.88-51.22,20.56,22,32.82,49.12,32.82,78,0,70-71.45,123-158.41,118.54a194.38,194.38,0,0,1-55.86-11.16A76.45,76.45,0,0,0,2251.12,384.9Z"/></g><path class="cls-64" d="M590.48,1545S449.73,1301.25,259.39,1715.7C111.18,2038.42,207,2397.45,549.86,2496s878.45-100.44,710.34-240.66C903.62,1957.86,633,1694.22,590.48,1545Z"/><g class="cls-59"><path class="cls-65" d="M413.87,1764c-10,29.52-12.29,113.61-8.06,210.32,3.77,86.27-4.06,131.37,133.19,194.11,47,21.51,79.58,89.76,151.61,130.36,32.65,18.41,155.68,85,314.55,58.09,105.12-17.8,183.39-69.36,236.1-117.41-347.16-290.92-609-547.87-650.78-694.47,0,0-51.43-89-134.13-67.92C476.41,1499.41,483.23,1559.64,413.87,1764Z"/></g><g class="cls-59"><path class="cls-66" d="M1098.68,2397.93c-162.17,89.55-433,144.2-634.78-5.67-186.83-138.76-203.47-371.15-209.7-442.07-10.88-124,13.33-231.87,48.25-318.93-14,24.52-28.4,52.51-43.06,84.44C111.18,2038.42,207,2397.45,549.86,2496c337.51,97,861.69-94.28,717.74-234C1226.68,2308.09,1171.48,2357.73,1098.68,2397.93Z"/></g><path class="cls-67" d="M843.21,2424.53c-4.81,0-9.63-.06-14.51-.17-125.24-2.79-301.07-44.39-427.5-226.68-106.78-154-92.49-327.73-61.7-446.38,33.32-128.41,92.65-221.73,93.24-222.66a2.23,2.23,0,0,1,3.75,2.41c-.59.92-59.58,93.74-92.71,221.49-30.52,117.72-44.71,290.06,61.08,442.6,125.36,180.75,299.73,222,423.94,224.76,134.77,3,241-37.26,242.08-37.66a2.23,2.23,0,0,1,1.6,4.16C1071.46,2386.79,971.83,2424.52,843.21,2424.53Z"/><path class="cls-68" d="M1515.75,2401.47c-8.93-9.62-25-51,4.26-59.54,29.37-8.56,45.69-19.4,86.14-51.82s50.83-4.58-6.29,48.08S1528.46,2415.16,1515.75,2401.47Z"/><path class="cls-69" d="M1477.49,2341l24,21a15.09,15.09,0,0,0,18,1.39,9.8,9.8,0,0,0,1.13-15.72l-35.16-30.09Z"/><path class="cls-70" d="M756.92,2138.72c-42.51,37.24,46.22,159.36,188,119.78,171.77-48,390.22-26.41,537.48,93.49,8.54-7.6,29.7-19.53,20-29.31-133-134.52-256.24-211.75-358.3-232.47C989.8,2058.88,878,2032.69,756.92,2138.72Z"/><g class="cls-71"><path class="cls-72" d="M1255.25,2189.87c24.92,14.5,30.23-14.95,43.08-34.33-55.18-33.88-107-55.74-154.23-65.33-154.3-31.33-266.14-57.52-387.18,48.51-42.51,37.24,46.22,159.36,188,119.78,51.26-14.32,106.71-22.28,163.16-23.44C1153.46,2206.5,1190.61,2141,1255.25,2189.87Z"/></g><path class="cls-73" d="M731.83,2265.93l-8.72,3.34s-56.44-53.29-66.5-66.87c-12.28-16.57,125.93-58.81,170.81-114.09,47.16-58.08,9.9,69,9.9,69Z"/><path class="cls-74" d="M680.65,1743.12s50.1,6.87,105,104.29c41.31,73.25,131,133.94,131,133.94L925.9,2039l-74.44,13.07-26.63-17.53L752.2,1880Z"/><path class="cls-75" d="M583.49,1736.91S460,1752.14,457.33,1894.26c-2.45,131.15,44.87,182,161,291.32,11.68,11,30.61,11,32,12.59q11.32,12.75,22.92,26.64c103.91-99.72,221.08-133.5,221.08-133.5s-108.36-224.18-156-298.49C689.25,1716.2,615.21,1729.29,583.49,1736.91Z"/><g class="cls-59"><path class="cls-76" d="M788.56,2068c-52.14,27.9-126,24.74-153.21-9.78-20.46-26-23.78-35.69-48.69-76.51-20-32.85-29.8-38.11-73.58-65.77-16.53-10.43-35.29-25.54-53.68-48.18a222.48,222.48,0,0,0-2.07,26.52c-2.45,131.15,44.87,182,161,291.32,11.68,11,30.61,11,32,12.58q11.32,12.77,22.92,26.65c103.91-99.73,221.08-133.5,221.08-133.5s-18-35.26-41.8-84.84C835.25,2035.42,822,2050.08,788.56,2068Z"/></g><path class="cls-54" d="M703.4,2072.15s23.4,1.08,40-5.61,15.25-8.24,34.39-10.67c18.6-2.36,55.23-13.4,34.49-32.26-23.08-21-62.66-15.11-74-1.17-11,13.43-30,22-30,22Z"/><path class="cls-77" d="M494.62,1807.75s-68.6,8-28.57,228.88c20.76,114.56,123.38,98.44,247.3,51.1,8.38-17.55-2.41-54.74-2.41-54.74S557,2096.46,553,2003.86C548.54,1900,534.64,1796.78,494.62,1807.75Z"/><path class="cls-78" d="M612.23,1783.9c-29.36,0-59.18-21.74-60.61-22.79a1.12,1.12,0,1,1,1.32-1.8c.39.29,39.6,28.88,71.34,21,8.79-2.2,14.81-6.5,17.89-12.79,5.86-12-.78-27.31-.85-27.47a1.11,1.11,0,0,1,2-.9c.29.67,7.12,16.46.81,29.35-3.38,6.91-9.89,11.6-19.35,14A51.91,51.91,0,0,1,612.23,1783.9Z"/><path class="cls-79" d="M655.88,2193.62a1.08,1.08,0,0,1-.82-.37,1.1,1.1,0,0,1,.08-1.57c1.1-1,111.67-100,211.49-124.37a1.1,1.1,0,0,1,1.35.81,1.13,1.13,0,0,1-.82,1.35c-99.27,24.27-209.43,122.87-210.53,123.87A1.11,1.11,0,0,1,655.88,2193.62Z"/><path class="cls-54" d="M594.05,1682.74s-9.43,48.26-16.61,55.49,3.19,24.23,29.57,38.7,20.11-44.34,20.11-44.34Z"/><path class="cls-80" d="M664.74,1665.82l2.87.3c11.83,1.27,20,15.23,18.32,31.19l-.09.89c-1.71,16-12.68,27.87-24.5,26.61l-2.87-.31c-6-.63-9.4-14.29-7.67-30.49S658.77,1665.18,664.74,1665.82Z"/><path class="cls-81" d="M644.06,1693.29c-1.89,17.73,3.48,32.85,12.29,33.79s17.73-12.65,19.62-30.38-3.94-32.91-12.75-33.85S646,1675.55,644.06,1693.29Z"/><rect class="cls-82" x="656.87" y="1662.54" width="3.38" height="64.6" transform="translate(183.92 -60.41) rotate(6.1)"/><ellipse class="cls-83" cx="656.88" cy="1694.66" rx="32.3" ry="16.04" transform="translate(-1097.98 2167.75) rotate(-83.9)"/><path class="cls-84" d="M648.21,1693.73c-1,9.64,2,17.88,6.81,18.39s9.51-6.89,10.54-16.54-2-17.87-6.81-18.39S649.24,1684.08,648.21,1693.73Z"/><path class="cls-85" d="M658.33,1690.83c11.12-7.22,17.52-24.48,12.35-38.68-4.46-12.21-16.06-17.83-23-21.2-20.07-9.74-49.19-10.57-64.61,4.86-9.11,9.13-5.2,36.23-4.77,41,.49,5.41,3.7,8.35,6,13.12,3.16,6.62,8.06,17.1,16,34.54a84.72,84.72,0,0,1,9.37-12A75.72,75.72,0,0,1,625,1699.83C640.23,1690.82,647.81,1697.66,658.33,1690.83Z"/><path class="cls-54" d="M586.4,1707.22s6.26,26.75,34.06,34.86c25,7.28,46.69-44.81,34.87-61.75-3.94-5.65-13.85-10.94-23.12-11.65-5.47-.42-7.85,1-16.77.14-8.23-.79-10.09-2.37-13-1.31-3.65,1.32-7.69,6.32-8.18,23.59-3.09-6.25-8.07-10-12.63-9.6a8.4,8.4,0,0,0-4.27,1.92C571.91,1688.27,575,1698.07,586.4,1707.22Z"/><path class="cls-86" d="M602.41,1663.93c.89,1.27-4.15,4.26-6.46,10.22-4.49,11.54,2.93,30,15,35.66,7.12,3.36,10.61-.24,23.22,2.89a61.59,61.59,0,0,1,17.47,7.4c-.54,14.28-8.52,25.83-19.4,28.59-11.71,3-22.54-5.31-27.07-8.78-3-2.31-12.73-9.7-15.12-21.46-2.49-12.25,5.38-16.27.9-25.56-2.25-4.68-6.24-7.79-8.35-16.05a34.62,34.62,0,0,1-.95-5.39C590.08,1667.21,601.13,1662.08,602.41,1663.93Z"/><path class="cls-54" d="M641.09,1721.68s-6.19.79-15.14-3c-.44-.19-1-.24-1.1,0-.5.76,4.07,6.64,10,7.11,4.19.33,8.37-2.13,8.16-3.21C642.88,1722.1,642,1721.84,641.09,1721.68Z"/><path class="cls-87" d="M591.05,1667.86l-3.65-.43,1.29-11.28c2.22-19.45,17.43-33.93,34.63-33l18.41,1c9.62.54,18.29,5.39,24.41,13.66a42.18,42.18,0,0,1,7.69,29.71l-1,9-3.65-.39,1-9a37.72,37.72,0,0,0-6.87-26.59c-5.48-7.4-13.24-11.74-21.85-12.22l-18.41-1c-15.25-.85-28.73,12-30.71,29.24Z"/><path class="cls-88" d="M665.42,1647.43a5.24,5.24,0,0,1-3.83-2.46c-4.78-7.45-12.22-12-20.42-12.44l-18.41-1a23.69,23.69,0,0,0-17.73,6.83,5.05,5.05,0,0,1-7.76-.67,6.87,6.87,0,0,1,.8-8.82A34.18,34.18,0,0,1,623.6,1619l18.41,1c11.47.63,21.88,7,28.57,17.39a6.89,6.89,0,0,1-1.29,8.77A5.15,5.15,0,0,1,665.42,1647.43Z"/><path class="cls-89" d="M659.06,1633.93c-13-5.89-12.63-10-19.63-11.06-13.1-2-19.92,11.51-32.54,8.29a19.55,19.55,0,0,1-7.27-3.72c-.53.46-1,.92-1.55,1.41a6.87,6.87,0,0,0-.8,8.82,5.05,5.05,0,0,0,7.76.67,23.69,23.69,0,0,1,17.73-6.83l18.41,1c8.2.46,15.64,5,20.42,12.44a5.24,5.24,0,0,0,3.83,2.46,5.15,5.15,0,0,0,3.87-1.24,6.9,6.9,0,0,0,1.73-8A78.44,78.44,0,0,1,659.06,1633.93Z"/><path class="cls-90" d="M604.07,1688.48c-1.91,17.93-10.69,31.7-19.6,30.74S569.9,1703,571.81,1685s10.7-31.7,19.6-30.75S606,1670.54,604.07,1688.48Z"/><ellipse class="cls-91" cx="584.77" cy="1686.41" rx="32.66" ry="16.22" transform="translate(-1154.23 2088.68) rotate(-83.9)"/><path class="cls-92" d="M584.24,1656.35l-2.9-.31c-12-1.27-23,10.77-24.77,26.9l-.09.91c-1.73,16.13,6.57,30.25,18.52,31.53l2.9.31c6,.64,12.34-12.12,14.09-28.5S590.27,1657,584.24,1656.35Z"/><path class="cls-93" d="M577.9,1685.22c-1.26,11.83-7.06,20.9-12.95,20.27s-9.64-10.72-8.38-22.55,7.07-20.9,13-20.27S579.17,1673.39,577.9,1685.22Z"/><path class="cls-94" d="M719.85,2101.84a3,3,0,0,0-2.45,2c0,.15.4,5.75.38,5.92a2.81,2.81,0,0,0,1.93,2.91l105,34.12L1021,2070l-93.26,7.13Z"/><path class="cls-95" d="M719.8,2101.08a2.81,2.81,0,0,0-.46,5.45l105,34.12,196.27-76.87-93.25,7.13Z"/><path class="cls-96" d="M819.71,2139.12l15.65-204.74a7.08,7.08,0,0,1,6-6.47l235.05-36.79a7.1,7.1,0,0,1,8.18,7.33l-8.82,190.84a7.08,7.08,0,0,1-5.8,6.64l-244.17,45.21Z"/><path class="cls-94" d="M824.74,2146.84l16.13-209.26a7.1,7.1,0,0,1,6-6.46l235.05-36.79a7.1,7.1,0,0,1,8.18,7.34l-8.82,190.85a7.1,7.1,0,0,1-5.76,6.65Z"/><path class="cls-97" d="M824.74,2146.84l250.76-47.67a7.1,7.1,0,0,0,5.76-6.64l2.66-57.57c-74.7,42.43-168.31,47.82-255.55,64.84Z"/><path class="cls-98" d="M1249.45,2104c-3.43-11.91-11-25.06,16-34.66,19.63-7,53.73-9.2,84.73-10.79,43.43-2.23,53.42,23.75-10,40.29C1298.6,2109.61,1254.33,2120.87,1249.45,2104Z"/><path class="cls-99" d="M1283.29,2085.72c.41,6.66-3.83,11.89-9.37,12.68-12.85,1.84-10.44-4.78-10.85-11.44s-5.6-11.29,9.38-12.68C1278,2073.76,1282.89,2079.06,1283.29,2085.72Z"/><path class="cls-100" d="M1151.41,2047.41l12.69-2s24.71,2.31,92.82,21.09c14.58,2.42,34.46,45-8.26,46.65s-94.72,33.48-94.72,33.48Z"/><path class="cls-101" d="M707.86,2245.4s6.22,55.22,134.62,50.19,357.78-138.31,356.33-208.26-86.8-42-175.17-1.57c-74.6,34.12-189.82,53.89-213.44,57.55C780,2148,700.56,2218.87,707.86,2245.4Z"/><g class="cls-55"><path class="cls-102" d="M875.86,2176.2c59.44-6.06,72.78-48.71,146.74-61,47.92-8,64.85,6.16,89.28-10.2,19.28-12.92,29.13-35.44,33.87-59.9-32.78,2.78-77,20.07-122.11,40.7-72.45,33.14-183.23,52.74-211.18,57.19-.82.14-19.56-6.56-19.56-6.56s-13.94,8-23.94,14.26C807.92,2171.53,854.16,2178.41,875.86,2176.2Z"/></g><polygon class="cls-103" points="1772.1 1263.41 2055.07 1295.78 2055.07 1207.89 1772.1 1201.24 1772.1 1263.41"/><polygon class="cls-104" points="2040.58 1278.28 2040.58 1223.38 1779.53 1212.91 1779.53 1252.77 2040.58 1278.28"/><polygon class="cls-105" points="1734.98 1259.13 1813.73 1268.14 1784.08 1173.72 1734.98 1174.53 1734.98 1259.13"/><polygon class="cls-104" points="1800.87 1254.82 1779.29 1185.29 1741.63 1185.28 1741.63 1249.03 1800.87 1254.82"/><polygon class="cls-54" points="2005.75 1266.87 2030.23 1269.05 2030.23 1231.19 2005.75 1230 2005.75 1266.87"/><polygon class="cls-54" points="1974.54 1264.09 1997.36 1266.12 1997.36 1229.59 1974.54 1228.47 1974.54 1264.09"/><polygon class="cls-54" points="1945.38 1261.49 1966.71 1263.39 1966.71 1228.09 1945.38 1227.05 1945.38 1261.49"/><polygon class="cls-54" points="1918.08 1259.06 1938.06 1260.84 1938.06 1226.69 1918.08 1225.71 1918.08 1259.06"/><polygon class="cls-106" points="1892.47 1256.78 1911.21 1258.45 1911.21 1225.38 1892.47 1224.46 1892.47 1256.78"/><polygon class="cls-107" points="1868.39 1254.64 1886.02 1256.21 1886.02 1224.15 1868.39 1223.29 1868.39 1254.64"/><polygon class="cls-108" points="1845.71 1252.62 1862.31 1254.1 1862.31 1222.99 1845.71 1222.18 1845.71 1252.62"/><polygon class="cls-109" points="1824.31 1250.72 1839.98 1252.11 1839.98 1221.9 1824.31 1221.13 1824.31 1250.72"/><polygon class="cls-110" points="1119.46 1822.1 823.97 1856.34 823.97 1785.02 1119.46 1762.97 1119.46 1822.1"/><polygon class="cls-104" points="836.98 1841.88 836.98 1796.99 1110.39 1774.54 1110.4 1812.27 836.98 1841.88"/><polygon class="cls-111" points="1165.93 1816.69 1069.76 1827.83 1104.9 1737.81 1165.93 1734.36 1165.93 1816.69"/><polygon class="cls-104" points="1084.85 1815.01 1110.69 1748.36 1157.45 1745.37 1157.45 1807.14 1084.85 1815.01"/><polygon class="cls-54" points="869.07 1831.74 846.39 1834.1 846.39 1802.98 869.07 1801.03 869.07 1831.74"/><polygon class="cls-54" points="898.85 1828.63 876.97 1830.91 876.97 1800.35 898.85 1798.46 898.85 1828.63"/><polygon class="cls-54" points="927.59 1825.63 906.48 1827.83 906.48 1797.81 927.59 1795.99 927.59 1825.63"/><polygon class="cls-112" points="955.35 1822.73 934.96 1824.86 934.96 1795.36 955.35 1793.6 955.35 1822.73"/><polygon class="cls-113" points="982.18 1819.93 962.47 1821.99 962.47 1792.99 982.18 1791.29 982.18 1819.93"/><polygon class="cls-114" points="1008.13 1817.23 989.07 1819.21 989.07 1790.7 1008.13 1789.06 1008.13 1817.23"/><polygon class="cls-115" points="1033.23 1814.61 1014.79 1816.53 1014.79 1788.48 1033.23 1786.89 1033.23 1814.61"/><polygon class="cls-116" points="1057.53 1812.07 1039.67 1813.93 1039.67 1786.34 1057.53 1784.8 1057.53 1812.07"/></g></g></svg>