<svg xmlns="http://www.w3.org/2000/svg" xmlns:xlink="http://www.w3.org/1999/xlink" viewBox="0 0 2481.7 2690.73"><defs><style>.cls-1{isolation:isolate;}.cls-2{fill:#f4f7fa;}.cls-3{fill:url(#linear-gradient);}.cls-4{fill:url(#linear-gradient-2);}.cls-5{opacity:0.2;}.cls-10,.cls-13,.cls-14,.cls-43,.cls-5,.cls-53,.cls-59{mix-blend-mode:multiply;}.cls-6{fill:url(#linear-gradient-3);}.cls-7{fill:#fff;}.cls-8{fill:url(#linear-gradient-4);}.cls-9{fill:url(#linear-gradient-5);}.cls-10,.cls-13,.cls-14,.cls-43,.cls-44,.cls-53,.cls-59{opacity:0.3;}.cls-11{fill:url(#linear-gradient-6);}.cls-12{fill:url(#linear-gradient-7);}.cls-13{fill:url(#linear-gradient-8);}.cls-14{fill:url(#linear-gradient-9);}.cls-15{fill:url(#linear-gradient-10);}.cls-16{fill:url(#linear-gradient-11);}.cls-17{fill:url(#linear-gradient-12);}.cls-18{fill:url(#linear-gradient-13);}.cls-19{fill:url(#linear-gradient-14);}.cls-20{fill:url(#linear-gradient-15);}.cls-21{fill:url(#linear-gradient-16);}.cls-22{fill:url(#linear-gradient-17);}.cls-23{fill:url(#linear-gradient-18);}.cls-24{fill:url(#linear-gradient-19);}.cls-25{fill:url(#linear-gradient-20);}.cls-26{fill:url(#linear-gradient-21);}.cls-27{fill:url(#linear-gradient-22);}.cls-28{fill:url(#linear-gradient-23);}.cls-29{fill:url(#linear-gradient-24);}.cls-30{fill:url(#linear-gradient-25);}.cls-31{fill:url(#linear-gradient-26);}.cls-32{fill:url(#linear-gradient-27);}.cls-33{fill:url(#linear-gradient-28);}.cls-34{fill:url(#linear-gradient-29);}.cls-35{fill:url(#linear-gradient-30);}.cls-36{fill:url(#linear-gradient-31);}.cls-37{fill:url(#linear-gradient-32);}.cls-38{fill:url(#linear-gradient-33);}.cls-39{fill:url(#linear-gradient-34);}.cls-40{fill:url(#linear-gradient-35);}.cls-41{fill:url(#linear-gradient-36);}.cls-42{fill:url(#linear-gradient-37);}.cls-43{fill:url(#linear-gradient-38);}.cls-44{mix-blend-mode:soft-light;fill:url(#linear-gradient-39);}.cls-45{fill:url(#linear-gradient-40);}.cls-46{fill:#87a5fe;}.cls-47{fill:url(#linear-gradient-41);}.cls-48{fill:url(#linear-gradient-42);}.cls-49{fill:url(#linear-gradient-43);}.cls-50{fill:url(#linear-gradient-44);}.cls-51{fill:url(#linear-gradient-45);}.cls-52{fill:url(#linear-gradient-46);}.cls-53{fill:url(#linear-gradient-47);}.cls-54{fill:url(#linear-gradient-48);}.cls-55{fill:url(#linear-gradient-49);}.cls-56{fill:url(#linear-gradient-50);}.cls-57{fill:url(#linear-gradient-51);}.cls-58{fill:url(#linear-gradient-52);}.cls-59{fill:url(#linear-gradient-53);}.cls-60{fill:url(#linear-gradient-54);}</style><linearGradient id="linear-gradient" x1="1050.6" y1="-280.85" x2="1442.11" y2="504.82" gradientUnits="userSpaceOnUse"><stop offset="0" stop-color="#ffc444"/><stop offset="1" stop-color="#f36f56"/></linearGradient><linearGradient id="linear-gradient-2" x1="1280.83" y1="235.2" x2="1661.11" y2="940.51" xlink:href="#linear-gradient"/><linearGradient id="linear-gradient-3" x1="1176.4" y1="282.08" x2="1545.83" y2="1023.43" xlink:href="#linear-gradient"/><linearGradient id="linear-gradient-4" x1="700.99" y1="155.76" x2="965.43" y2="218.23" gradientUnits="userSpaceOnUse"><stop offset="0" stop-color="#311944"/><stop offset="1" stop-color="#893976"/></linearGradient><linearGradient id="linear-gradient-5" x1="-1179.71" y1="83.97" x2="-953.01" y2="504.43" gradientTransform="matrix(-1, 0, 0, 1, -258.32, 0)" gradientUnits="userSpaceOnUse"><stop offset="0" stop-color="#e38ddd"/><stop offset="1" stop-color="#9571f6"/></linearGradient><linearGradient id="linear-gradient-6" x1="-1246.16" y1="111.75" x2="-1024" y2="557.56" gradientTransform="matrix(-1, 0, 0, 1, -258.32, 0)" gradientUnits="userSpaceOnUse"><stop offset="0" stop-color="#ff9085"/><stop offset="1" stop-color="#fb6fbb"/></linearGradient><linearGradient id="linear-gradient-7" x1="741.83" y1="1106.09" x2="1667.74" y2="2825.63" gradientUnits="userSpaceOnUse"><stop offset="0" stop-color="#4179e8"/><stop offset="1" stop-color="#294391"/></linearGradient><linearGradient id="linear-gradient-8" x1="1023.75" y1="1389.88" x2="1690.23" y2="1389.88" gradientUnits="userSpaceOnUse"><stop offset="0" stop-color="#3f4ea6"/><stop offset="1" stop-color="#5544ab"/></linearGradient><linearGradient id="linear-gradient-9" x1="1785.31" y1="1979.41" x2="2241.8" y2="1509.95" xlink:href="#linear-gradient-7"/><linearGradient id="linear-gradient-10" x1="812.11" y1="1770.76" x2="431.7" y2="1151.73" xlink:href="#linear-gradient-7"/><linearGradient id="linear-gradient-11" x1="804.88" y1="1873.07" x2="1242.62" y2="1873.07" xlink:href="#linear-gradient-7"/><linearGradient id="linear-gradient-12" x1="985.21" y1="1507.35" x2="1009.42" y2="1732.14" xlink:href="#linear-gradient-7"/><linearGradient id="linear-gradient-13" x1="1053.44" y1="1778.87" x2="1012.37" y2="2157.79" xlink:href="#linear-gradient-7"/><linearGradient id="linear-gradient-14" x1="1045.32" y1="1733.01" x2="1041.59" y2="2057.8" xlink:href="#linear-gradient-7"/><linearGradient id="linear-gradient-15" x1="1481.2" y1="1845.73" x2="1887.28" y2="1845.73" xlink:href="#linear-gradient-7"/><linearGradient id="linear-gradient-16" x1="1640.95" y1="1436.73" x2="1665.16" y2="1661.52" xlink:href="#linear-gradient-7"/><linearGradient id="linear-gradient-17" x1="1721.68" y1="1751.6" x2="1680.62" y2="2130.52" xlink:href="#linear-gradient-7"/><linearGradient id="linear-gradient-18" x1="1713.57" y1="1705.74" x2="1709.84" y2="2030.53" xlink:href="#linear-gradient-7"/><linearGradient id="linear-gradient-19" x1="886.4" y1="1151.09" x2="969.4" y2="1392.3" gradientUnits="userSpaceOnUse"><stop offset="0" stop-color="#8caeff"/><stop offset="1" stop-color="#7196e9"/></linearGradient><linearGradient id="linear-gradient-20" x1="1621.38" y1="898.19" x2="1704.38" y2="1139.41" xlink:href="#linear-gradient-19"/><linearGradient id="linear-gradient-21" x1="938.05" y1="1657.84" x2="871.48" y2="1593.86" xlink:href="#linear-gradient-19"/><linearGradient id="linear-gradient-22" x1="811.33" y1="1789.69" x2="744.76" y2="1725.71" xlink:href="#linear-gradient-19"/><linearGradient id="linear-gradient-23" x1="811.06" y1="1789.97" x2="744.49" y2="1725.99" xlink:href="#linear-gradient-19"/><linearGradient id="linear-gradient-24" x1="937.47" y1="1658.43" x2="870.9" y2="1594.46" xlink:href="#linear-gradient-19"/><linearGradient id="linear-gradient-25" x1="704.1" y1="1452.74" x2="844.16" y2="1750.15" xlink:href="#linear-gradient-19"/><linearGradient id="linear-gradient-26" x1="601.28" y1="1501.16" x2="741.34" y2="1798.58" xlink:href="#linear-gradient-19"/><linearGradient id="linear-gradient-27" x1="551.26" y1="1524.72" x2="691.32" y2="1822.13" xlink:href="#linear-gradient-19"/><linearGradient id="linear-gradient-28" x1="752.7" y1="1429.85" x2="892.76" y2="1727.27" xlink:href="#linear-gradient-19"/><linearGradient id="linear-gradient-29" x1="2162.27" y1="1728.09" x2="1757.65" y2="1067.56" xlink:href="#linear-gradient-7"/><linearGradient id="linear-gradient-30" x1="2348.05" y1="1660.07" x2="2257.27" y2="1569.29" xlink:href="#linear-gradient-19"/><linearGradient id="linear-gradient-31" x1="2189.4" y1="1818.73" x2="2098.62" y2="1727.95" xlink:href="#linear-gradient-19"/><linearGradient id="linear-gradient-32" x1="2191.72" y1="1816.4" x2="2100.94" y2="1725.62" xlink:href="#linear-gradient-19"/><linearGradient id="linear-gradient-33" x1="2344.51" y1="1663.62" x2="2253.73" y2="1572.84" xlink:href="#linear-gradient-19"/><linearGradient id="linear-gradient-34" x1="2055.78" y1="1414.51" x2="2219.18" y2="1974.75" xlink:href="#linear-gradient-19"/><linearGradient id="linear-gradient-35" x1="1970.49" y1="1439.38" x2="2133.89" y2="1999.62" xlink:href="#linear-gradient-19"/><linearGradient id="linear-gradient-36" x1="1873.09" y1="1467.79" x2="2036.49" y2="2028.03" xlink:href="#linear-gradient-19"/><linearGradient id="linear-gradient-37" x1="2150.96" y1="1386.74" x2="2314.37" y2="1946.98" xlink:href="#linear-gradient-19"/><linearGradient id="linear-gradient-38" x1="130.15" y1="1435.47" x2="1056.05" y2="3155.01" xlink:href="#linear-gradient-7"/><linearGradient id="linear-gradient-39" x1="1023.75" y1="1414.16" x2="1690.23" y2="1414.16" xlink:href="#linear-gradient-19"/><linearGradient id="linear-gradient-40" x1="-3823.31" y1="368.28" x2="-3030.99" y2="906.46" gradientTransform="matrix(-1, 0, 0, 1, -2801.46, 0)" gradientUnits="userSpaceOnUse"><stop offset="0" stop-color="#311944"/><stop offset="1" stop-color="#6b3976"/></linearGradient><linearGradient id="linear-gradient-41" x1="-4173.71" y1="1612.04" x2="-4067.01" y2="1612.04" xlink:href="#linear-gradient-40"/><linearGradient id="linear-gradient-42" x1="-4123.39" y1="1654.09" x2="-3964.19" y2="1176.5" gradientTransform="matrix(-1, 0, 0, 1, -2801.46, 0)" xlink:href="#linear-gradient"/><linearGradient id="linear-gradient-43" x1="-4156.73" y1="1416.11" x2="-4091.47" y2="1416.11" xlink:href="#linear-gradient-40"/><linearGradient id="linear-gradient-44" x1="-4194.55" y1="1595.3" x2="-4087.99" y2="1275.62" gradientTransform="matrix(-1, 0, 0, 1, -2801.46, 0)" xlink:href="#linear-gradient"/><linearGradient id="linear-gradient-45" x1="-4063.25" y1="1056.71" x2="-3983.77" y2="1516.21" gradientTransform="matrix(-1, 0, 0, 1, -2801.46, 0)" gradientUnits="userSpaceOnUse"><stop offset="0" stop-color="#3252c7"/><stop offset="1" stop-color="#2d3a79"/></linearGradient><linearGradient id="linear-gradient-46" x1="-3951" y1="1601.28" x2="-3837.99" y2="1243.62" xlink:href="#linear-gradient-45"/><linearGradient id="linear-gradient-47" x1="-3950.99" y1="1601.29" x2="-3837.98" y2="1243.62" xlink:href="#linear-gradient-45"/><linearGradient id="linear-gradient-48" x1="-3791.97" y1="1010.34" x2="-3712.67" y2="1468.77" xlink:href="#linear-gradient-45"/><linearGradient id="linear-gradient-49" x1="5676.18" y1="-55.14" x2="5683.36" y2="-246.35" gradientTransform="translate(-4731.73 -260.55) rotate(10.28)" xlink:href="#linear-gradient"/><linearGradient id="linear-gradient-50" x1="5673.94" y1="-223.94" x2="5670.87" y2="23.63" gradientTransform="translate(-4731.73 -260.55) rotate(10.28)" xlink:href="#linear-gradient"/><linearGradient id="linear-gradient-51" x1="-2417.77" y1="1004.35" x2="-2109.91" y2="1004.35" gradientTransform="matrix(-1, 0, 0, 1, -1291.47, 0)" gradientUnits="userSpaceOnUse"><stop offset="0" stop-color="#40447e"/><stop offset="1" stop-color="#3c3b6b"/></linearGradient><linearGradient id="linear-gradient-52" x1="-2614.64" y1="810.15" x2="-2412.8" y2="1010.38" xlink:href="#linear-gradient-51"/><linearGradient id="linear-gradient-53" x1="-2614.64" y1="810.15" x2="-2412.8" y2="1010.38" xlink:href="#linear-gradient-51"/><linearGradient id="linear-gradient-54" x1="3965.25" y1="943.64" x2="3862.91" y2="1040.08" gradientTransform="translate(-3031.74)" xlink:href="#linear-gradient"/></defs><title>play</title><g class="cls-1"><g id="Illustration"><path class="cls-2" d="M1893.45,1098.1C1941.89,657,1514.2,503.68,1211,616.64c-305.66,113.87-376.52-74.89-806.33-21-435.21,54.61-214.25,737.77-214.25,737.77s69.25,594.05,151.29,867.88c81.6,272.34,862.65,173.81,1052.65,165.68,188.91-8.08,353.06,7.52,517.42-291.51C2075.83,1777,1845.18,1537.79,1893.45,1098.1Z"/><path class="cls-3" d="M1667.93,425.49c0-135.77-125.23-241.76-274.39-236.91-85,2.76-158.86,41.06-205,97.59v-.05c-.29.35-.56.71-.84,1.07-.8,1-1.57,2-2.35,3-1.43,1.83-2.83,3.66-4.2,5.52-.81,1.1-1.6,2.21-2.39,3.32-1.32,1.86-2.6,3.73-3.86,5.62-.72,1.08-1.45,2.16-2.16,3.25-1.4,2.19-2.75,4.4-4.08,6.63-.48.8-1,1.59-1.46,2.4q-2.62,4.53-5,9.17c-.42.82-.81,1.66-1.23,2.48-1.17,2.32-2.31,4.65-3.4,7-.54,1.15-1,2.32-1.56,3.49q-1.38,3.12-2.67,6.3c-.5,1.22-1,2.45-1.46,3.69-.83,2.17-1.62,4.36-2.39,6.55-.4,1.15-.81,2.3-1.19,3.45q-1.37,4.15-2.56,8.37c-.17.58-.36,1.16-.52,1.74q-1.4,5.08-2.55,10.25c-.23,1-.41,2-.62,3.05-.52,2.47-1,4.94-1.44,7.44-.21,1.27-.41,2.54-.6,3.82-.36,2.31-.68,4.62-1,6.95-.16,1.31-.32,2.61-.45,3.92-.25,2.46-.44,4.93-.61,7.4-.07,1.15-.17,2.3-.23,3.46-.18,3.61-.3,7.25-.3,10.9,0,87.13,52.77,164,131.88,205.13q10.9,5.67,22.48,10.43,5.79,2.39,11.73,4.52a291.37,291.37,0,0,0,90,16.86h0c4.39.13,8.76.15,13.11.09,1.46,0,2.92-.1,4.38-.15,2.87-.08,5.75-.17,8.61-.33,1.74-.1,3.47-.26,5.21-.39,2.55-.2,5.1-.39,7.63-.65,1.85-.18,3.69-.42,5.53-.64,2.4-.29,4.79-.59,7.16-.94,1.9-.27,3.78-.58,5.66-.9q3.45-.57,6.87-1.21c1.91-.36,3.8-.75,5.69-1.15q3.34-.71,6.66-1.49,2.84-.67,5.66-1.39c2.18-.57,4.35-1.17,6.51-1.78,1.86-.52,3.72-1,5.56-1.61.68-.21,1.38-.39,2-.6l0,0C1593,617.79,1667.93,530.16,1667.93,425.49Z"/><path class="cls-4" d="M1647.44,425.52c0,135.42-124.6,241.56-273,237.22-142.88-4.17-254.87-109.93-254.87-236.35s112-232.54,254.87-237.19C1522.84,184.37,1647.44,290.1,1647.44,425.52Z"/><g class="cls-5"><path class="cls-6" d="M1439,603.81c-32.21-70.9.35-136.42-43.13-181.9-43.68-45.68-99.7-3-159.09-39.53-22.71-14-47.8-40.73-66.34-95.89-32,39.26-50.86,87.68-50.86,139.9,0,126.42,112,232.18,254.87,236.35a291.21,291.21,0,0,0,95.82-13.11A163.12,163.12,0,0,1,1439,603.81Z"/></g><path class="cls-7" d="M1317.67,494V459.72h24.77l-5.39-17.81h-53.7l-5.5,17.81h20.42V494H1215V459.72h17.83l35.34-114.94h-10.72V311.05H1358l46.26,148.67h18.36V494Zm9.68-83.52L1310,354l-17,56.49Z"/><path class="cls-7" d="M1436.09,374.13c10.43-6.34,32.92-18.6,57-18.6,31.42,0,71,11.8,71,54v51h15.67V494h-56l-6.29-11.79c-9.65,13.36-25.83,16.77-35.31,16.77-24.87,0-51.57-13.3-51.57-43.74,0-29.55,24.88-48.11,54.44-48.11,15.44,0,24.66,7.49,26,9.09v-9.09c0-11.84-10.79-14.69-24.92-14.69-15.41,0-29,6.56-39,12Zm74.85,72.23c-.8-1.3-4.5-7.6-15.44-7.6-10.53,0-15.22,5.77-15.22,13.87,0,7.29,6,12.29,13.84,12.29s14.45-4.73,16.82-8.61Z"/><path class="cls-8" d="M876.17,57.84c87.08,2.67,160.23,55.85,174.48,123.15a2.56,2.56,0,0,1,0,.27,112.9,112.9,0,0,1,1.78,11.17c0,.25.06.5.08.75.18,1.75.32,3.52.42,5.29,0,.33,0,.65,0,1,.09,1.81.14,3.63.14,5.46,0,78.21-79.83,137.49-177,132.46q-3.88-.21-7.71-.54l-.75-.07c-2.42-.21-4.83-.48-7.22-.77l-1.11-.14c-2.32-.29-4.62-.63-6.9-1l-1.29-.21q-3.37-.56-6.69-1.22l-1.34-.27c-2.2-.46-4.39-.93-6.56-1.45l-1.26-.31c-2.15-.53-4.3-1.08-6.42-1.67l-1.14-.32c-1.91-.55-3.8-1.11-5.69-1.71l-1.43-.44q-2.86-.93-5.68-1.93c-.4-.14-.82-.27-1.22-.42h0c-64.59-23.3-110-75.74-110-134.39C703.76,114.31,780.39,54.9,876.17,57.84Z"/><path class="cls-9" d="M685.32,190.49c0,76.19,76.63,141.91,172.41,146.87,97.18,5,177-54.25,177-132.46s-79.83-144.08-177-147.06C762,54.9,685.32,114.31,685.32,190.49Z"/><path class="cls-7" d="M795.54,166.53c0,22.37,26.05,75.57,44.44,110.37,7.66,14.49,27.85,15.46,35.54,1.68,18.55-33.24,45-84.59,45-107.17,0-34.84-28.18-64.06-62.77-65.25C823.31,105,795.54,132,795.54,166.53Zm28.73,1.12a32.1,32.1,0,0,1,33.46-32.41,35.26,35.26,0,0,1,33.63,35,32.09,32.09,0,0,1-33.63,32.4A35.26,35.26,0,0,1,824.27,167.65Z"/><g class="cls-10"><path class="cls-11" d="M815.45,299.68c21-40.17-.23-79.61,28.14-105,28.95-25.94,66.75.83,107.68-19.72,15.89-8,33.6-23.77,46.8-57.23,23,24.61,36.67,54.89,36.67,87.2,0,78.21-79.83,137.49-177,132.46a217.26,217.26,0,0,1-62.41-12.47A85.53,85.53,0,0,0,815.45,299.68Z"/></g><path class="cls-12" d="M2412.77,2153.72l-164.24-799.59c-32.61-158.74-184.42-256.35-334.81-212.76l-68,19.69a271.6,271.6,0,0,1-75.09,10.74l-151.74.33-624.35,1.34-164.42.35a316.12,316.12,0,0,1-83.36-11l-76.63-20.75c-173.68-47-355,59.92-394.77,235.8L70.57,2283.94c-34.26,151.53,51.88,296.37,199.77,337.95h0c164.52,46.25,342.26-56.63,387.55-221.65L728.22,2144c14.59-53.16,62.56-91.68,117-94.19l911.81-42c49.31-2.26,92.33,30.07,105.33,78.94l62.19,233.68c39.61,148.83,191.76,220.83,328.14,157.54h0C2371.76,2422.71,2439.64,2284.54,2412.77,2153.72Z"/><path class="cls-13" d="M1613.71,1593.58l-507.91,14.17c-45.22,1.26-82-40.5-82-93.29V1173.63l666.48-1.66v327.61C1690.23,1550.31,1656.05,1592.4,1613.71,1593.58Z"/><path class="cls-14" d="M2030.11,2276.29c-1.6-59.65,26.81-90.38,20.75-181.55-2.84-42.63-10.9-163.79-90.78-225.66-76.53-59.27-182.27-35.68-319-5.18-176.22,39.3-169.39,81.5-293.09,98.56-180.33,24.86-244.63-58-376.08-15.57C906.34,1968,856.31,2010,818.73,2054a123.69,123.69,0,0,1,26.47-4.23l911.81-42c49.31-2.26,92.33,30.07,105.33,78.94l62.19,233.68c32.14,120.77,138.39,190.94,250.18,179.29C2060.3,2409.26,2031.63,2333.12,2030.11,2276.29Z"/><path class="cls-15" d="M933.23,1512.34c0,148.13-121.23,272.16-272.81,277.09-153.89,5-280.37-114.29-280.37-266.53s126.48-276.37,280.37-277.24C812,1244.8,933.23,1364.2,933.23,1512.34Z"/><path class="cls-16" d="M1242.62,1864.89c0,119.74-96.33,221.46-216.46,227.28-121.6,5.88-221.28-88.53-221.28-210.93s99.68-224.26,221.28-227.46C1146.29,1650.62,1242.62,1745.15,1242.62,1864.89Z"/><path class="cls-17" d="M1200.9,1866.45c0,96.66-77.85,178.62-174.74,183.1-97.84,4.52-177.87-71.54-177.87-169.93s80-180.43,177.87-183.22C1123.05,1693.65,1200.9,1769.79,1200.9,1866.45Z"/><path class="cls-18" d="M1166.31,1868.4c0,67.33-54.16,124.53-121.72,127.8-68.38,3.31-124.42-49.78-124.42-118.61s56-126.1,124.42-127.9C1112.15,1747.91,1166.31,1801.07,1166.31,1868.4Z"/><path class="cls-19" d="M1142.85,1869.28c0,54.35-43.77,100.44-98.26,103-55,2.54-100-40.23-100-95.56s45-101.46,100-103C1099.08,1772.11,1142.85,1814.92,1142.85,1869.28Z"/><path class="cls-20" d="M1887.28,1838.14c0,115.37-89.41,213.23-200.88,218.62-112.79,5.46-205.2-85.61-205.2-203.45s92.41-215.82,205.2-218.78C1797.87,1631.59,1887.28,1722.77,1887.28,1838.14Z"/><path class="cls-21" d="M1848.55,1839.59c0,93.13-72.26,172-162.15,176.12-90.75,4.2-165-69.17-165-163.91s74.2-173.64,165-176.22C1776.29,1673,1848.55,1746.46,1848.55,1839.59Z"/><path class="cls-22" d="M1834.56,1841.13c0,67.33-54.17,124.53-121.72,127.8-68.38,3.31-124.43-49.78-124.43-118.61s56-126.1,124.43-127.9C1780.39,1720.64,1834.56,1773.8,1834.56,1841.13Z"/><path class="cls-23" d="M1811.1,1842c0,54.36-43.78,100.44-98.26,103-55,2.55-100-40.22-100-95.55s45-101.46,100-103C1767.32,1744.83,1811.1,1787.65,1811.1,1842Z"/><path class="cls-24" d="M933.29,1350.32h0A33.3,33.3,0,0,1,899.5,1317v-59.22a33.94,33.94,0,0,1,33.79-33.85h0A33.43,33.43,0,0,1,967,1257.36v59A34.06,34.06,0,0,1,933.29,1350.32Z"/><path class="cls-25" d="M1752.85,1340.41h0c-17,.18-30.8-14.07-30.8-31.83V1252c0-17.77,13.8-32.23,30.8-32.31h0c17-.08,30.7,14.21,30.7,31.92V1308C1783.55,1325.71,1769.82,1340.22,1752.85,1340.41Z"/><path class="cls-26" d="M689.42,1320.58l-58.09.55c-17.12.16-31,13.92-31,30.74V1418a29.66,29.66,0,0,0,5.19,16.76l26.27,38.42a30.49,30.49,0,0,0,25.77,13.14l5.77-.1a31.58,31.58,0,0,0,25.69-14l26.06-39.09a30.34,30.34,0,0,0,5.13-16.82v-65.72A30.17,30.17,0,0,0,689.42,1320.58Z"/><path class="cls-27" d="M689.42,1713.41l-58.09,1.67c-17.12.49-31-12.74-31-29.56V1619.4a30.6,30.6,0,0,1,5.19-17L631.76,1563a31.87,31.87,0,0,1,25.77-14.13l5.77-.11a30.22,30.22,0,0,1,25.69,13l26.06,38.09a29.45,29.45,0,0,1,5.13,16.63v65.72C720.18,1699,706.42,1712.92,689.42,1713.41Z"/><path class="cls-28" d="M458.36,1492.56v57.69c0,16.94,14.1,30.36,31.46,30l67.95-1.5a32.19,32.19,0,0,0,17.24-5.47l39.68-26.64A31,31,0,0,0,628.54,1521v-5.67a29.67,29.67,0,0,0-13.85-25.1L575,1465.09a31.3,31.3,0,0,0-17.24-4.81l-67.95,1.1C472.46,1461.66,458.36,1475.62,458.36,1492.56Z"/><path class="cls-29" d="M858.52,1485.48V1542a31,31,0,0,1-30.33,30.74L762,1574.24a30.37,30.37,0,0,1-16.92-4.68l-39.17-24.81a29.51,29.51,0,0,1-13.75-25v-5.66a30.84,30.84,0,0,1,13.75-25.5l39.17-26.31A31.14,31.14,0,0,1,762,1457l66.16-1.08A29.62,29.62,0,0,1,858.52,1485.48Z"/><path class="cls-30" d="M702.39,1323.46l-58.09.54c-17.13.16-31,13.93-31,30.75v66.11a29.66,29.66,0,0,0,5.19,16.77l26.27,38.42a30.49,30.49,0,0,0,25.77,13.14l5.77-.1a31.63,31.63,0,0,0,25.69-14L728,1436a30.33,30.33,0,0,0,5.12-16.82v-65.72A30.16,30.16,0,0,0,702.39,1323.46Z"/><path class="cls-31" d="M702.39,1716.28,644.3,1718c-17.13.49-31-12.75-31-29.57v-66.11a30.64,30.64,0,0,1,5.19-17l26.27-39.41a31.84,31.84,0,0,1,25.77-14.13l5.77-.12a30.25,30.25,0,0,1,25.69,13L728,1602.77a29.44,29.44,0,0,1,5.12,16.63v65.72C733.14,1701.84,719.39,1715.79,702.39,1716.28Z"/><path class="cls-32" d="M471.33,1495.44v57.69c0,16.94,14.09,30.36,31.46,30l67.95-1.49a32.28,32.28,0,0,0,17.24-5.47l39.67-26.64a31,31,0,0,0,13.86-25.63v-5.68a29.63,29.63,0,0,0-13.86-25.09L588,1468a31.22,31.22,0,0,0-17.24-4.81l-67.95,1.1C485.42,1464.54,471.33,1478.5,471.33,1495.44Z"/><path class="cls-33" d="M871.49,1488.36v56.56a31,31,0,0,1-30.33,30.74L775,1577.11a30.28,30.28,0,0,1-16.92-4.67l-39.17-24.81a29.5,29.5,0,0,1-13.75-25V1517a30.83,30.83,0,0,1,13.75-25.51l39.17-26.31a31.31,31.31,0,0,1,16.92-5.32l66.16-1.07A29.61,29.61,0,0,1,871.49,1488.36Z"/><path class="cls-34" d="M1777.9,1494.71c0,141.29,109,252.28,241.72,248,130.89-4.26,235.67-119.33,235.67-257.08s-104.78-248.82-235.67-248.08C1886.88,1238.27,1777.9,1353.42,1777.9,1494.71Z"/><path class="cls-35" d="M2080.22,1330.79c0,35.43-27.08,64.52-60.6,65s-61-28-61-63.7,27.35-64.75,61-65S2080.22,1295.37,2080.22,1330.79Z"/><path class="cls-36" d="M2080.22,1647.08c0,35.42-27.08,65-60.6,66s-61-27-61-62.66,27.35-65.22,61-66S2080.22,1611.65,2080.22,1647.08Z"/><path class="cls-37" d="M1868.51,1428.12c34.06-.54,61.58,28,61.58,63.68s-27.52,65.27-61.58,66-62-27.74-62-63.68S1834.33,1428.65,1868.51,1428.12Z"/><path class="cls-38" d="M2168.35,1423.42c33-.52,59.64,27.55,59.64,62.69s-26.65,64.24-59.64,65-60-27.32-60-62.69S2135.24,1423.94,2168.35,1423.42Z"/><path class="cls-39" d="M2093.19,1333.67c0,35.42-27.08,64.52-60.6,65s-61-28-61-63.69,27.36-64.75,61-65S2093.19,1298.25,2093.19,1333.67Z"/><path class="cls-40" d="M2093.19,1650c0,35.43-27.08,65-60.6,66s-61-27-61-62.67,27.36-65.21,61-66S2093.19,1614.53,2093.19,1650Z"/><path class="cls-41" d="M1881.48,1431c34.06-.53,61.58,28,61.58,63.69s-27.52,65.27-61.58,66-62-27.74-62-63.68S1847.29,1431.53,1881.48,1431Z"/><path class="cls-42" d="M2181.31,1426.29c33-.51,59.65,27.56,59.65,62.7s-26.66,64.23-59.65,65-60-27.32-60-62.69S2148.21,1426.81,2181.31,1426.29Z"/><path class="cls-43" d="M349.39,2520.1c5.19-65.64,93.58-75.41,111.53-158.21,24.61-113.51-125-171.1-111.53-293.09,13.17-119.31,167.8-168.71,145.25-241.22-11.21-36-51.45-30.59-106.35-80.4-77.16-70-94.71-168.84-98.56-197.12-24-176,117.14-308.11,142.66-332A456.64,456.64,0,0,1,565,1131.81c-136.09,9.46-257.84,105.79-289.54,246L70.57,2283.94c-34.26,151.53,51.88,296.37,199.77,337.95h0a301.62,301.62,0,0,0,140.6,5.16C359.21,2582.33,347.27,2547,349.39,2520.1Z"/><path class="cls-44" d="M1506.18,1477.44c-73.6-40.63-117.24,7.79-170.64-29-62.26-43-23.58-123.05-86.14-170.68-52.69-40.11-103.08-.75-179.23-30.66a188.21,188.21,0,0,1-46.42-26.53v293.93c0,52.79,36.83,94.55,82,93.29l507.91-14.17a66.88,66.88,0,0,0,30.06-8.2,210.28,210.28,0,0,1-36-16.87C1554,1536.73,1555.73,1504.79,1506.18,1477.44Z"/><path class="cls-45" d="M978.32,654.55c14.9-9.67,1.32-37.78.52-98.16-1-74,18.67-87.79,2.88-116.82-19.3-35.5-67.89-50.19-100.08-50.88-7.1-.15-8.76-4-68.24,11.37-107.16,27.76-134-2-182,27.72-46.36,28.72-26.06,60.16-71.08,93.84-73,54.58-149.72-4.43-201.88,41.22C309.12,606,308,716.06,359.88,776.1c58.83,68.07,164.9,47.62,236,34.12,15-2.84,90.51-18.71,169.18-76.77a450.22,450.22,0,0,0,92.41-91.7c4.46-5,11.43-11.1,20.62-12.08,11-1.18,19.89,5.57,24.16,8.53C924.68,653.73,963.67,664,978.32,654.55Z"/><path class="cls-46" d="M918.43,623.52c19.16-17.46,87.55,16.19,132.88,60.86,53.24,52.47,49.15,95,95.62,160.2,23.1,32.41,62.71,76,132.88,114.25l-14.9,37.26c-33.93,2-100.54.84-162.69-39.74-43.17-28.19-65.38-65.54-108-139.1C951.36,743.44,894.47,645.35,918.43,623.52Z"/><path class="cls-47" d="M1350.38,1612,1297,1579.93h-24.1s-8.2,30.55-7.27,32.08c10.73,17.59,60.72,31,91.91,32.08,5.18.18,12.4.21,14.27-3.54C1375,1634.19,1360.83,1620.86,1350.38,1612Z"/><path class="cls-48" d="M1296,1544.92c-3.43,19.86.91,30.22,5.59,36,3.3,4.08,6.22,5.24,25.77,22.14,6.46,5.59,9.75,8.58,9,10.14-.86,1.8-6.56.82-18.88-2.14-26.85-6.45-40.34-9.81-43.63-16.27-3-5.85-.35-8.49-.52-24.43a82.76,82.76,0,0,0-3.93-24.22Z"/><path class="cls-49" d="M1334.64,1387.53s24.12,28.78,20.19,60.33-46.16-14.58-52-30.17-12.77-37.8-12.77-37.8S1319.63,1361.46,1334.64,1387.53Z"/><path class="cls-50" d="M1325.44,1342.49s-6.55,33.54,5.93,51.23c6.22,8.82,14.61,16.29,12.14,23.47-1.65,4.81-7.93,8.26-13.24,7.71-10.18-1-15.82-16.64-19.8-27.64-5.87-16.25-9.15-51-9.15-51Z"/><path class="cls-51" d="M1306.21,1370.76l22.26-8.11c11.57-26.43,25.69-69.84,21-122.61-12.14-135.71-137.65-207.62-151.59-215.31-34.2,17.15-68.84,41.36-70.09,71.87-1.58,38.31,50.61,58.55,99.66,114.57C1256.87,1244.79,1288.34,1294.88,1306.21,1370.76Z"/><path class="cls-52" d="M1298.22,1560.44c24.51-95.74,18.24-173.87,11.17-218.88-10.68-68-32.42-206.4-124.81-258-20.17-11.27-49-21.36-84.16-52.68a298.09,298.09,0,0,1-59.27-73.06c-123.56-36.24-237.52-21.55-287.81,44.71-5.81,7.66-20.36,24.26-23.17,48.75C723.82,1106.54,778.11,1173.06,839,1187c77.43,17.65,122.34-61.85,190.94-35.39,19.19,7.39,35.46,25.73,68,62.4a518.71,518.71,0,0,1,73.47,106.92c26.21,51.29,46.08,89.15,49,138.22.68,11.43,1.08,34.52,14.47,59.43,10.28,19.12,24.21,31.87,34.57,39.75Z"/><path class="cls-53" d="M730.17,1051.28c2.81-24.49,17.36-41.09,23.17-48.75,50.29-66.26,164.25-80.95,287.81-44.71a298.09,298.09,0,0,0,59.27,73.06c35.15,31.32,64,41.41,84.16,52.68,56.42,31.51,86.46,95.37,103.76,155.81-25.66-39.79-47.63-50.37-64.63-50.56-24.34-.27-35.21,20.54-64.27,17.7-31.06-3-38.16-28.72-63.34-31.67-7.53-.88-16.81.28-27.94,6.21-14.86-15.56-25.94-24.77-38.19-29.49-68.6-26.46-113.51,53-190.94,35.39C778.11,1173.06,723.82,1106.54,730.17,1051.28Z"/><path class="cls-54" d="M1234.2,1126.38a407.07,407.07,0,0,0-61.5,1.4c-123.28,12.18-157.27,73.16-259.16,88-24.1,3.52-131.41,19.2-177.9-42.84-33.36-44.54-28.32-121.29,8.18-151.47,15.45-12.78,30.74-12.42,129.67-11.53,37.26.34,74.52.46,111.77.93,157.71,2,187.87-8.91,216.56,17.18C1215.21,1040.25,1234.78,1066.39,1234.2,1126.38Z"/><path class="cls-46" d="M901.27,620.39s-184-53.67-203.12,81.06c-18.3,129.13,75.44,188.39,32.79,319.18-4.94,15.16,350.31-54.29,350.31-54.29-47.42-59.16-58.44-108-59.57-141.9-1.25-37.21,9.48-54.12,0-98.1,0,0-10.58-49.07-48.75-91.21C967.45,629.08,960.92,622.78,901.27,620.39Z"/><path class="cls-55" d="M860.8,546c1.5,7,9.1,44.45-6.22,54.09-3.33,2.09-9.71,3.28-22.48,5.68-8.36,1.56-15.38,2.52-20.32,3.12.71,6.28,2.83,16.5,10.08,25.8,20.32,26.08,61.07,19.33,66.88,18.27,20.5-3.73,40.67-10.06,45.54-13.93,7.42-5.9,13.25-10.32,16.7-14.81-7.93-3.83-24-13.94-34.69-17.25a198.56,198.56,0,0,0-22.43-5.5l-3.39-21.71Z"/><path class="cls-56" d="M860.08,564.64s2.77,27.46,29.46,32.3c23.9,4.33,41.89-53.42,29.66-68.36-4.08-5-14.15-9.72-22.88-9.47-6.14.18-26.88,8.08-29.78,28.83-4.13-4.35-9.27-5.6-11.81-3.78-3.22,2.31-1.5,9-1.1,10.56A19.33,19.33,0,0,0,860.08,564.64Z"/><path class="cls-57" d="M1118.76,981.47,837.1,995.18a11.8,11.8,0,0,0-9.46,5.56l-7.8,12.51a9.15,9.15,0,0,0,8.12,14l298.34-11.36Z"/><path class="cls-58" d="M1411.71,824.62l-291,5.64A24.42,24.42,0,0,0,1100,842.6L999.21,1019.89l307.32-12.24A25.05,25.05,0,0,0,1327,995.5l93.35-156A9.85,9.85,0,0,0,1411.71,824.62Z"/><path class="cls-59" d="M1100,842.61a24.41,24.41,0,0,1,20.74-12.35l6.38-.12c1,9.39,3.83,18,9.58,24.92,18,21.66,47.76,8.3,70,31.22,24.41,25.18,1.86,55.15,23.69,78.58,23,24.67,60.11,4.58,102.8,20.37L1327,995.5a25.05,25.05,0,0,1-20.47,12.15l-307.32,12.24Z"/><path class="cls-46" d="M860.05,972.06q5.51-14.52,11-29C830.53,931.9,774.5,915.49,717,895c-9-3.21-19.7-7.2-23.2-16.67-9.83-26.57,52.65-54.11,76.94-112.12,22.47-53.66,10.1-128.13-16-136.93-54.25-18.3-246.63,221.16-177.92,322.11C615.71,1008.4,735.45,1017.49,860.05,972.06Z"/><path class="cls-60" d="M871.05,943c25.44-13.51,55.89.34,57.85,1.27A76.17,76.17,0,0,1,950.84,960c.93,1.27,12,16.56,7.94,21.46-3.22,3.92-15.7.67-30.69-8.66a116.26,116.26,0,0,0-26.86-.65c-20.58,1.89-30,8.4-37.49,2.78-5.47-4.1-7.34-12.79-5.37-19.25C860.49,948.75,866.75,945.3,871.05,943Z"/></g></g></svg>