<svg xmlns="http://www.w3.org/2000/svg" viewBox="0 0 1677.85 1466.36"><defs><style>.cls-1{fill:#f5f5f5;}.cls-2{fill:#2b454e;}.cls-3{fill:#fff;}.cls-4{fill:#375a64;}.cls-5{fill:#00bbc2;}.cls-6{opacity:0.1;}.cls-7{fill:#1a2e35;}.cls-8{fill:#ffaaa8;}.cls-9{opacity:0.2;}.cls-10{fill:#ff9090;}</style></defs><title>shape</title><g id="Layer_2" data-name="Layer 2"><g id="Layer_1-2" data-name="Layer 1"><path id="Floor" class="cls-1" d="M245.72,1308.69c327.62,210.23,858.8,210.23,1186.41,0s327.62-551.07,0-761.3-858.8-210.23-1186.42,0S-81.91,1098.46,245.72,1308.69Z"/><g id="Plants"><path class="cls-2" d="M1509.45,1098.19l-16.34-9.34s-7.85-43.21-2-80.36c8.24-52.23,43.8-70.24,56.72-65s16,20.66-7.38,50.84C1526.71,1012.08,1509,1049.72,1509.45,1098.19Z"/><path class="cls-3" d="M1503.53,1077.45h.16a1.16,1.16,0,0,0,1-1.32c-6.75-48.89,12.91-102.46,35-124a1.17,1.17,0,1,0-1.63-1.67c-22.49,22-42.53,76.43-35.67,126A1.17,1.17,0,0,0,1503.53,1077.45Z"/><path class="cls-4" d="M1554.81,1124.39c2.59,1.49,7.91-1.76,10-3.12a24.7,24.7,0,0,0,8.2-9.42,23,23,0,0,0,2-13.87,53.48,53.48,0,0,0-1.75-7.38l-2.06-7.16a18.13,18.13,0,0,1-1-7.23c.63-4.89,5-8.32,8.93-11.28,4.37-3.28,8.92-7.6,8.89-13.49,0-4.55-2.37-8.78-5.19-12.35s-6.17-6.73-8.72-10.49c-1.83-2.72-3.26-5.91-3-9.17a15,15,0,0,1,2-5.72c2.09-3.84,4.83-7.36,6.27-11.48s1.23-9.26-2-12.21c-2.64-2.42-6.57-2.76-10.15-2.52-3.31.22-6.54,1.71-9.43,3.32-9.36,5.2-14.71,16.29-24.64,20.3-3.83,1.54-8,1.88-12,2.94s-8.07,3.09-9.92,6.79c-3.65,7.28,3.12,16.26.56,24-2.27,6.84-8.92,9.46-12.65,15.62a14.62,14.62,0,0,0-1.75,9,43,43,0,0,0,3.78,15.13c2.11,4.89,8.3,13.64,8.3,13.64C1509.61,1098.34,1554.42,1124.17,1554.81,1124.39Z"/><path class="cls-3" d="M1528.27,1110.25h0a1.16,1.16,0,0,0,1.13-1.21c-1.93-46.28,19.88-97.37,35.74-112.21a1.17,1.17,0,0,0-1.6-1.71c-16.17,15.15-38.42,67.09-36.47,114A1.16,1.16,0,0,0,1528.27,1110.25Z"/><path class="cls-3" d="M1535.21,1055.58a1.33,1.33,0,0,0,.34,0c14.87-4.6,33.4-5.41,33.59-5.42a1.16,1.16,0,0,0,1.11-1.21,1.13,1.13,0,0,0-1.21-1.12c-.19,0-19,.83-34.17,5.52a1.17,1.17,0,0,0,.34,2.28Z"/></g><g id="Trails"><polygon class="cls-5" points="417.37 588.57 339.08 633.77 1265.54 1213.87 1422.12 1123.46 417.37 588.57"/><polygon class="cls-5" points="299.93 565.94 286.88 663.88 469.56 558.4 299.93 565.94"/><path class="cls-5" d="M1317.73,1183.72l-117.44,67.81-124-71.57c-126.86-73.24-286.71-123.25-462.26-144.62a1595.14,1595.14,0,0,0-391.5,1.33L201,983.36l80.1-12.4C424,948.87,575.91,946.49,720.6,964.1c179.69,21.88,343.31,73.07,473.16,148Z"/><polygon class="cls-5" points="178.74 935.12 250.49 1089.72 105.73 1029.47 178.74 935.12"/><path class="cls-5" d="M1487.36,1085.79l-117.43,67.81L1246,1082c-129.85-75-218.52-169.43-256.4-273.17-30.51-83.52-26.41-171.25,11.87-253.73l21.46-46.23,101.59-9.43c-37.38,80.56-41.4,166.28-11.59,247.87,37,101.36,123.64,193.65,250.5,266.89Z"/><polygon class="cls-5" points="929.5 506.07 1197.27 547.49 1092.92 463.92 929.5 506.07"/><polygon class="cls-5" points="1161.14 1228.93 1291.63 1304.27 1578.7 1138.53 1448.21 1063.19 1161.14 1228.93"/></g><ellipse id="Shadow" class="cls-6" cx="1321.36" cy="1148.41" rx="137.54" ry="79.41"/><path id="Shadow-2" data-name="Shadow" class="cls-6" d="M712.2,776.83c14.43,8.33,14.43,21.84,0,30.18s-37.83,8.33-52.26,0-14.43-21.85,0-30.18S697.77,768.5,712.2,776.83Z"/><g id="Question_Mark" data-name="Question Mark"><path class="cls-2" d="M733.25,467.66h0l-32.89-19h0c-7.84-4.54-19-3.52-33.42,4.8-31.57,18.23-47.63,52.61-47.63,85.1,0,17.22,4.54,29.92,13.49,35.36L665.66,593h0c7.91,4.75,19.27,3.81,34-4.7,31.57-18.22,47.07-53,47.07-85.51C746.74,485.51,742.2,472.91,733.25,467.66Z"/><path class="cls-2" d="M810.26,27.14,776.8,7.89C753.14-5.66,718.72-2.4,675.25,22.7,596.6,68.1,542.33,154.82,525.71,246.37l32.74,18.9,87.5-19.5c10-38.25,24.92-65.34,59.26-85.16a80.08,80.08,0,0,1,13.93-6.53,68.34,68.34,0,0,1,1,11.82c0,29.53-19.94,63.19-99.68,142.46V433.89l32.73,18.9,93.59-54V329.35c46.53-49.75,99.69-124,99.69-214.84C846.43,71.78,833.85,41,810.26,27.14Z"/><path class="cls-4" d="M653.15,327.26C732.9,248,752.84,214.33,752.84,184.8c0-25.85-11.63-45-47.63-24.19-34.34,19.82-49.29,46.91-59.26,85.16l-87.5,19.5C575.07,173.72,629.34,87,708,41.6c87.5-50.52,138.45-12.74,138.45,72.91,0,90.83-53.16,165.09-99.69,214.84v69.41l-93.59,54Z"/><path class="cls-4" d="M652.05,557.49c0-32.49,16.06-66.87,47.62-85.09,31-17.91,47.07-2.08,47.07,30.41s-15.5,67.29-47.07,85.51S652.05,590,652.05,557.49Z"/><path class="cls-7" d="M752.84,184.8c0,29.54-20,63.18-99.69,142.48l-32.71-18.9c79.73-79.3,99.64-112.94,99.64-142.48a68.11,68.11,0,0,0-.93-11.8C744.29,145.44,752.84,162.64,752.84,184.8Z"/></g><path class="cls-8" d="M1375.17,597.9c13.86-3.28,29.1,6.57,38,28.34s26.76,77.26,30.47,91.81c1.67,6.51-47.77,64.16-46,63.29.55-.26-16.1-28.11-16.1-28.11l24-36.92-15-40.09Z"/><path class="cls-7" d="M1407.12,1113.72c1.87.71,2.35,4.29,2.63,11.4.22,5.38,1.37,14.78-4.93,16.66s-15.54.91-19.58-4.16c-5-6.33-8.46-11.91-15.65-19.63-6.25-6.71-13-13-15.52-22.36-2.28-8.5-.38-12.18,5.41-14.65,8-3.4,20.49,7.7,26.74,9.45C1391.6,1091.93,1405.24,1113,1407.12,1113.72Z"/><path class="cls-8" d="M1407.12,1107.13v8.74s-9.09,7-22.07.59c-.39-.84-2.3-17.69-2.3-17.69Z"/><path class="cls-7" d="M1342.13,1160.13s2.5,7.6,3.85,14.24c1.08,5.28,2.62,14.1.77,18.07s-9.07,6.54-20.25,6.45c-7.24-.05-18.53,4.87-26.25,9.18-8,4.45-16.64,4.47-25.09,3.48-10-1.17-20.25-6.94-21.86-11.06s.46-6.1,23.9-16.09c.22-.09,24.73-11.16,36.07-23.68Z"/><path class="cls-8" d="M1342.13,1150.69s0,6.48,0,10.18-4.34,9.23-15.67,8.82c-8-.28-13.5-2.42-13.19-9v-9.44Z"/><path class="cls-2" d="M1415.71,986.06c-4-28.54-10.66-44.92-10.66-44.92s4.93-38.64,7.79-75.77c5.12-66.52,1-88.27-12.08-118.11,0,0-111.63-11.31-115,35.08-4.24,57.78,1.39,169.43,2.92,189.84s3.43,29.6,10.66,72.26c5.49,32.45,14,106.84,14,106.84,14.82,8,28.86-.59,28.86-.59s9.12-92.9,8.17-116.45a201.13,201.13,0,0,0-8.93-51.4s6.92-94.16,8.94-109.15c0,0,3.48,29.87,5,50.28s7.59,39.91,13.49,77.82c5.13,32.89,14.64,106.39,14.64,106.39,14.82,8,24.28-.87,24.28-.87S1419.71,1014.59,1415.71,986.06Z"/><polygon class="cls-8" points="1317.99 582.88 1323.23 626.01 1361.16 622.59 1356.83 574.71 1317.99 582.88"/><path class="cls-5" d="M1402.78,619.51c-4.17-11.34-18.35-24-32.93-21.27-3.8.7-7.14,1.26-10.71,2-.33,9.93-19.06,15.08-37.73,9q-8.42,2.41-15.41,4.91c-13.35,4.77-18.71,27-19,64s-4.24,129.61-4.24,129.61l15.61,4.91,7.29-27.06,2.94,32.42c16.89,4.25,34.63,3.94,53.89-.27,40.11-8.76,52.6-30.4,52.6-30.4s-4.93-33.58-28.6-70.12C1406.58,663.83,1409,636.35,1402.78,619.51Z"/><polygon class="cls-9" points="1286.67 696.71 1310.27 669.87 1286.08 718.15 1286.67 696.71"/><path class="cls-8" d="M1313.4,611.55s-23.15,1.82-33.1,16.87-48.8,70.66-48.8,70.66-61.86-31-64.9-34.63-1.33-11.09-.5-15.18,2.22-13.15,3.13-15.7c1.59-4.45-5-3.25-8.87.91s-5.6,12.29-7.53,13.68-16.66-15.53-23.8-23.69-10.49-13.89-15.28-10.52c-3.45,2.43-1.24,7.28,3.88,14.28s5.87,7.75,6.62,9.27c.61,1.25-1.28,2.25-2,2.92-1.38,1.24-3.85,3.28-4,5.21a16.78,16.78,0,0,1-.19,3.18c-.67,2.33-3.55,3.42-4.37,5.7-.58,1.65.06,3.5-.27,5.22-.21,1.11-.82,2.11-1,3.22-.39,2.18.86,4.32,2.29,6,5,6,11.88,8.26,18.45,11.9,5.47,3,11.12,4.35,17.42,7.15s80.65,59.82,92.21,53.43,69.59-73.93,69.59-73.93C1332,636.11,1313.4,611.55,1313.4,611.55Z"/><path class="cls-7" d="M1296.68,529.7s-14.82-16.72-4-33.68c12.73-20,37.27-23.4,66.36-15.6,14.41,3.86,34.57,19.18,36.38,46.83,1.39,21.33-58.09,37.07-56.73,51.68Z"/><path class="cls-10" d="M1288.53,536.18s-8.07,13-6.94,14.26,6.52,2.61,6.52,2.61Z"/><path class="cls-8" d="M1313.15,495.19c-8.06,4.45-22,12.64-24.81,42.86-2.9,31,4.28,41.58,8.6,45.53,2.92,2.65,17.63,3.25,25.23.67,9.5-3.24,30-14.06,39.29-30.28,11-19.09,12.64-44.18-.84-53.64C1341.64,487,1320,491.43,1313.15,495.19Z"/><path class="cls-7" d="M1310.77,496.55s-6.37,28.4,2.65,46c0,0,4.7-11.14,14.25-8.24s9.09,15.65,1.77,22.34-14.69,3.54-14.69,3.54a63.73,63.73,0,0,0,14.19,21.42s28.27,12.6,52.74-15c22.22-25.06,18.09-68.79-15.93-79.11S1310.77,496.55,1310.77,496.55Z"/><path class="cls-7" d="M1314.75,560.19v38.92l45.63-6.24a40.53,40.53,0,0,0,35-40.15V527.25l-36.21,23.19-17.12,15.16-17.33-1.42Z"/><path class="cls-7" d="M1288.72,484.45c-12.21,13.12-11.93,50,24.7,58.1l22-65.94C1321.36,468,1299.62,472.75,1288.72,484.45Z"/><path class="cls-7" d="M1310,552.76a7.2,7.2,0,0,1,4.52-13.67Z"/><path class="cls-7" d="M1350.31,873.69l2.11-22.56s16.39-1.58,34.06-12.89c0,0-7.25,11.62-27.16,16.92l-2.07,28.7-1.23,47Z"/></g></g></svg>